<?xml version="1.0" encoding="utf-8"?>
<!-- Generator: Adobe Illustrator 19.1.0, SVG Export Plug-In . SVG Version: 6.00 Build 0)  -->
<svg version="1.1" id="Layer_1" xmlns="http://www.w3.org/2000/svg" xmlns:xlink="http://www.w3.org/1999/xlink" x="0px" y="0px"
	 viewBox="0 0 29 48.9" style="enable-background:new 0 0 29 48.9;" xml:space="preserve">
<style type="text/css">
	.st0{fill-rule:evenodd;clip-rule:evenodd;}
	.st1{fill-rule:evenodd;clip-rule:evenodd;fill:#FFFFFF;}
</style>
<g>
	<path class="st0" d="M10.9,48c-0.2-0.3-0.2-0.6-0.2-1c0-1.7,0-3.3,0.1-5c0-0.4,0-0.7,0-1.1c0-0.3-0.1-0.7-0.1-1c0-0.3-0.1-0.7,0-1
		c0.2-1.1,0-2.2-0.1-3.2c-0.1-1-0.1-2.1-0.1-3.1c0-1.5,0-2.9,0-4.4c0-0.9,0-1.7,0-2.6c0-0.6,0-1.3-0.2-1.9c-0.2-0.8-0.2-1.6-0.2-2.4
		c0-0.4,0-0.9-0.1-1.3c0-0.1,0-0.2-0.1-0.3c-0.1,0-0.2,0-0.2,0c-0.6-0.1-0.7,0-0.7,0.6c0,0.7-0.1,1.3,0,2c0,0.3,0,0.6,0,0.9
		c0,0.6-0.1,1.1-0.1,1.7C9,25.2,9,25.6,9,25.9c0,0.9,0,1.7,0,2.6c0,1,0.2,1.9,0.1,2.9c-0.1,0.7,0,1.4,0,2.1c0,0.5,0,1,0,1.5
		c0,0.9,0.1,1.8,0.1,2.7c0,1.1,0,2.3,0,3.4c0,0.2,0,0.4,0,0.6c0,0.6,0,1.3,0,1.9c0,0.1,0,0.2,0,0.4c0,0.4-0.1,0.8-0.1,1.3
		c0,0.2,0.1,0.5-0.2,0.6c-0.1,0-0.1,0.2-0.1,0.3c0,0.5,0,0.9,0,1.4c0,0.2-0.1,0.4-0.3,0.4C8.2,48.2,8,48.1,8,47.9
		c-0.1-0.4-0.1-0.9-0.1-1.3c0-0.5,0-1,0-1.6c0-0.4,0-0.8,0-1.3c0-0.5,0-1,0-1.5c0-0.7,0-1.4,0-2c0.1-0.8,0.1-1.6,0-2.4
		c-0.1-0.5-0.1-1-0.1-1.4c0-0.8,0-1.6,0-2.4c-0.1-1.3,0-2.7,0-4c0-0.6,0-1.3,0.1-1.9c0.1-0.9,0.1-1.7,0.2-2.6c0-0.4,0-0.8,0-1.1
		c0-0.3,0-0.6,0-0.9c0.1-1,0.2-1.9,0-2.9c0,0,0-0.1,0-0.1c0-0.6,0-0.7-0.7-0.8c-0.7-0.1-0.8-0.1-0.8,0.7c0,0.4,0,0.9,0,1.3
		c0,0.3,0,0.5,0,0.8c-0.1,1-0.1,2-0.2,3.1c-0.1,0.9-0.2,1.8-0.3,2.8c0,0.4,0,0.8-0.1,1.2c0,0.6-0.1,1.2-0.1,1.8
		c0,0.8-0.1,1.7-0.1,2.5c0,0.5,0,0.9,0.1,1.4c0,0.3,0,0.7-0.1,1c0,0.6-0.1,1.2-0.1,1.8c0,0.8-0.1,1.6,0,2.4c0,0.6,0,1.2-0.1,1.8
		c-0.2,1.7-0.3,3.4-0.2,5.2c0,0.3,0,0.7,0,1c0,0.2-0.1,0.4-0.2,0.6c-0.2,0.1-0.3,0.1-0.4-0.1c0-0.1,0-0.2,0-0.3
		c0-1.2-0.1-2.5-0.1-3.7c0-0.8-0.1-1.6-0.2-2.4c0-0.6,0-1.2,0.1-1.8c0.1-0.4,0-0.9,0-1.3c0-0.2,0-0.4,0-0.6c0-0.9,0-1.8,0.1-2.7
		c0-1.1,0.1-2.2,0.1-3.3c0-0.9,0.1-1.8,0.2-2.6c0.1-0.8,0-1.6-0.1-2.4c0-0.2,0-0.4,0-0.6C5,26.2,5,25.5,5,24.9c0-0.2,0-0.4,0-0.6
		c0-1.4,0.1-2.9,0.1-4.3c0-0.6,0-0.6-0.6-0.7c-0.9-0.1-1.8-0.4-2.7-0.8c-0.4-0.2-0.9-0.3-1.2-0.6c-0.7-0.5-0.7-0.7-0.2-1.3
		c0.2-0.2,0.5-0.4,0.8-0.5c0.4-0.1,0.8-0.3,1.1-0.4c0.3-0.1,0.4-0.3,0.4-0.6c0-0.7,0.1-1.5,0.1-2.2c0-0.3,0-0.7,0.1-1
		C3,11,2.9,10,3.2,9.1c0.1-0.3,0.2-0.5,0.3-0.8C3.9,7.5,4.6,7,5.2,6.4C6,5.8,6.9,5.6,7.9,5.6c0.7,0,1.3,0.2,1.9,0.5
		c0.6,0.2,1.2,0.5,1.7,0.9c0.4,0.2,0.7,0.5,0.9,0.9c0.2,0.3,0.4,0.5,0.7,0.8c0.3,0.4,0.4,0.9,0.5,1.4c0.1,1.3,0.2,2.6,0.3,3.9
		c0.1,0.5,0.1,1.1,0.4,1.6c0,0.1,0,0.2,0,0.3c-0.1,0.3,0,0.6,0.3,0.6c0.5,0.1,0.7,0.5,1.1,0.8c0.1,0.1,0.1,0.2,0.1,0.3
		c0,0.1,0,0.1,0,0.2c0.1,0.5-0.2,0.7-0.6,0.9c-1.1,0.5-2.2,0.7-3.4,1c-0.3,0.1-0.4,0.1-0.4,0.4c0,0.9,0,1.7,0,2.6c0,0.8,0,1.5,0,2.3
		c0,0.8-0.1,1.6-0.1,2.5c0,0.1,0,0.3,0,0.5c0,0.6,0,1.2,0.1,1.8c0,0.2,0,0.4,0,0.5c0.2,1.2,0.2,2.5,0.3,3.7c0.1,0.8,0,1.6,0,2.5
		c0,0.1,0,0.1,0,0.2c0.2,0.8,0,1.6,0,2.3c0,0.6,0,1.2,0,1.8c0,0.5-0.1,1-0.1,1.5c0,1.2-0.1,2.3-0.1,3.5c0,0.5,0,1.1,0,1.6
		C11.5,47.7,11.4,47.9,10.9,48z M4,8.9C4,8.9,4,8.9,4,8.9c0.1,0.1,0.2,0,0.3,0.1c0.1,0,0.3,0.1,0.3,0.1c0,0.1,0,0.2-0.1,0.3
		C4.3,9.5,4.1,9.6,3.9,9.6c-0.3,0.1-0.3,0.1-0.2,0.5c0.1,0,0.3,0,0.4,0c0.1,0,0.2,0.1,0.3,0.1c0,0.1,0,0.2-0.1,0.3
		c-0.1,0.1-0.3,0.2-0.5,0.3c-0.1,0.1-0.2,0.2-0.1,0.3c0.1,0,0.3,0.1,0.5,0.1c-0.3,0.3-0.5,0.5-0.7,0.8c0.2,0.1,0.3,0.1,0.4,0.2
		c-0.1,0.2-0.1,0.4-0.2,0.6c0.1,0,0.3,0.1,0.4,0.2c-0.1,0.2-0.2,0.4-0.3,0.5c0.1,0.1,0.3,0.1,0.4,0.2c0,0.4-0.6,0.3-0.7,0.7
		c0.3,0,0.6-0.4,1-0.1c-0.2,0.2-0.5,0.4-0.7,0.7c0.5,0,0.9,0.1,1.3,0C5.7,15,6.4,14.9,7,14.9c0.7,0,1.4-0.1,2.1-0.1
		c0.7,0,1.5,0,2.2,0.2c0.1,0,0.1,0,0.2,0c0,0,0-0.1,0-0.1c-0.3-0.1-0.5-0.2-0.8-0.3c-0.3-0.1-0.4-0.2-0.4-0.4
		c0.1-0.2,0.2-0.2,0.5-0.2c0.2,0.1,0.5,0.1,0.7,0.2c0.2-0.2,0.4-0.4,0.5-0.6c0.1-0.3,0.3-0.3,0.6-0.3c0.1,0,0.2,0,0.4-0.1
		c-0.2-0.1-0.2-0.2-0.3-0.2c-0.1,0-0.2-0.1-0.3-0.1c-0.2-0.1-0.2-0.2-0.2-0.4c0.1-0.2,0.2-0.3,0.4-0.2c0.1,0,0.2,0,0.4,0.1
		c0.1-0.2,0-0.3-0.2-0.4c-0.2,0-0.3-0.1-0.5-0.1c-0.2-0.1-0.3-0.2-0.3-0.4c0-0.2,0.2-0.2,0.4-0.2c0.1,0,0.2,0.1,0.3,0.1
		c0.1,0,0.1,0,0.3-0.1c-0.2-0.2-0.4-0.1-0.6-0.1c-0.1,0-0.3-0.1-0.4-0.2c0-0.1,0-0.3,0.1-0.4c0.1-0.1,0.3-0.1,0.4,0
		c0.1,0,0.3,0.1,0.4,0.1c0-0.2,0-0.2,0-0.3c0-0.1,0-0.2-0.1-0.3c-0.2,0-0.4-0.1-0.5-0.1c-0.5-0.1-0.5-0.1-0.4-0.6c0,0,0-0.1,0-0.1
		c-0.3-0.3-0.5-0.7-0.9-0.8C10.7,8.3,10.8,8,11,7.9c0.1,0,0.2,0,0.3-0.1c-0.1-0.2-0.2-0.3-0.4-0.3C10.5,7.2,10,7,9.5,6.7
		C9.1,6.5,8.6,6.3,8,6.3c-0.1,0-0.3,0-0.4,0.1C7.2,6.8,6.8,7,6.2,6.7C6.2,6.8,6.1,6.9,6.1,7c-0.3,0.3-0.5,0.7-1,0.7
		C4.9,7.7,4.7,7.8,4.6,8C4.7,8,4.7,8,4.8,8c0.1,0,0.1,0,0.2,0C5.1,8.1,5.1,8.3,5,8.4C4.7,8.5,4.5,8.9,4.1,8.7C4.1,8.7,4,8.8,4,8.9z
		 M2.1,17.2c0.2,0.1,0.3,0.2,0.4,0.2c0.4,0.1,0.9,0.2,1.3,0.3c0.4,0.1,0.9,0.1,1.3,0.1c0-0.5,0-0.9,0-1.3
		C4.3,16.3,2.7,16.6,2.1,17.2z M11.4,16.7c0,0.3,0,0.5,0,0.7c0,0.3,0.1,0.4,0.4,0.4c0.5,0,1-0.1,1.4-0.1c0.3-0.1,0.7-0.2,1-0.3
		c0,0,0,0,0-0.1C13.9,17,12.7,16.7,11.4,16.7z M6.6,16.2c-0.1,0.6,0,1.2,0.2,1.7c0,0.1,0.2,0.2,0.3,0.2c0.2,0,0.3,0,0.5,0
		c0.3,0,0.3-0.1,0.3-0.3c0-0.4-0.1-0.8-0.1-1.2c0-0.2-0.2-0.4-0.4-0.4C7.1,16.2,6.8,16.2,6.6,16.2z M9.3,17.7c0.3,0,0.5,0,0.7,0
		c0-0.4,0-0.8,0-1.3c-0.3,0-0.5-0.2-0.8,0C9.2,16.9,9.3,17.2,9.3,17.7z M8.4,28.6c-0.2,0.2-0.1,0.4-0.1,0.6c0,0.6,0,1.2,0,1.8
		c0,0.6-0.1,1.3-0.1,1.9c0,0.1,0,0.1,0.1,0.3c0.1-0.3,0.2-0.5,0.2-0.7c0-0.7,0-1.4,0-2.1c0-0.4,0-0.9,0-1.3
		C8.4,28.9,8.4,28.8,8.4,28.6z M8.6,15.5c0,0,0,0.1,0,0.1c0.9,0.1,1.8,0.2,2.8,0.3C10.5,15.3,9.6,15.5,8.6,15.5z M9.8,19
		c0.1-0.1,0.3-0.1,0.3-0.2c0.1-0.2-0.1-0.3-0.2-0.4c-0.2-0.1-0.4-0.1-0.5,0.1c-0.1,0.1-0.1,0.2,0,0.3C9.4,18.9,9.6,18.9,9.8,19z
		 M5.9,21c0,0-0.1,0-0.1,0c0,0.8-0.1,1.6-0.1,2.4c0,0,0.1,0,0.1,0C5.8,22.6,5.8,21.8,5.9,21z M8.4,42.3c0,0,0.1,0,0.1,0
		c0-0.6,0-1.3-0.1-1.9c0,0-0.1,0-0.1,0C8.4,41.1,8.4,41.7,8.4,42.3z M12.4,14.7c0,0,0,0.1,0,0.1c0.2,0.1,0.4,0.1,0.7,0.1
		c0-0.1,0-0.2-0.1-0.3C12.8,14.6,12.6,14.6,12.4,14.7z M11.4,18.8c0.4-0.1,0.7-0.2,1-0.2c0,0,0-0.1,0-0.1c-0.3,0-0.6,0.1-0.9,0.2
		C11.4,18.6,11.4,18.7,11.4,18.8z M3.9,18.4c0.3,0.1,0.5,0.3,0.9,0.1C4.5,18.2,4.2,18.3,3.9,18.4z M5.5,25.2c0,0,0.1,0,0.1,0
		c0-0.1,0-0.3,0-0.4c0,0,0,0-0.1,0C5.6,24.9,5.5,25,5.5,25.2z M8.4,42.9C8.4,42.9,8.4,42.9,8.4,42.9c0.1,0,0.1-0.1,0.1-0.2
		c0,0,0,0-0.1,0C8.4,42.8,8.4,42.8,8.4,42.9z"/>
	<path class="st1" d="M4,8.9c0.1,0,0.1-0.1,0.2-0.1C4.5,8.9,4.7,8.5,5,8.4c0.1-0.1,0.1-0.2-0.1-0.3c-0.1,0-0.1,0-0.2,0
		c0,0-0.1,0-0.1-0.1c0.1-0.2,0.2-0.3,0.4-0.3c0.5,0.1,0.8-0.3,1-0.7c0.1-0.1,0.1-0.2,0.1-0.3c0.6,0.2,1,0.1,1.4-0.3
		C7.8,6.4,7.9,6.3,8,6.3c0.5,0,1,0.2,1.5,0.4C10,7,10.5,7.2,11,7.5c0.1,0.1,0.3,0.2,0.4,0.3c-0.1,0-0.2,0-0.3,0.1
		c-0.2,0.1-0.3,0.4-0.1,0.5c0.4,0.2,0.6,0.6,0.9,0.8c0,0,0,0.1,0,0.1c-0.1,0.5-0.1,0.5,0.4,0.6c0.2,0,0.3,0.1,0.5,0.1
		c0,0.1,0,0.2,0.1,0.3c0,0.1,0,0.2,0,0.3c-0.2-0.1-0.3-0.1-0.4-0.1c-0.1,0-0.3,0-0.4,0c-0.1,0.1-0.1,0.3-0.1,0.4
		c0.1,0.1,0.2,0.2,0.4,0.2c0.2,0.1,0.4-0.1,0.6,0.1c-0.1,0-0.2,0.1-0.3,0.1c-0.1,0-0.2,0-0.3-0.1c-0.2,0-0.3,0-0.4,0.2
		c0,0.2,0,0.3,0.3,0.4c0.2,0,0.3,0.1,0.5,0.1c0.2,0,0.3,0.1,0.2,0.4c-0.1,0-0.2,0-0.4-0.1c-0.2,0-0.3,0.1-0.4,0.2
		c-0.1,0.2,0,0.3,0.2,0.4c0.1,0,0.2,0.1,0.3,0.1c0.1,0,0.2,0.1,0.3,0.2c-0.2,0-0.3,0.1-0.4,0.1c-0.3,0-0.4,0-0.6,0.3
		c-0.1,0.2-0.3,0.3-0.5,0.6c-0.2,0-0.4-0.1-0.7-0.2c-0.3-0.1-0.5,0-0.5,0.2c-0.1,0.2,0,0.3,0.4,0.4c0.3,0.1,0.5,0.2,0.8,0.3
		c0,0,0,0.1,0,0.1c-0.1,0-0.2,0-0.2,0c-0.7-0.2-1.4-0.3-2.2-0.2c-0.7,0-1.4,0.1-2.1,0.1c-0.7,0-1.3,0.1-1.9,0.2
		c-0.4,0.1-0.8,0-1.3,0c0.3-0.3,0.5-0.5,0.7-0.7c-0.4-0.3-0.7,0.1-1,0.1c0.1-0.4,0.6-0.2,0.7-0.7c-0.1-0.1-0.2-0.1-0.4-0.2
		c0.1-0.2,0.2-0.3,0.3-0.5C3.9,13,3.8,13,3.6,13c0.1-0.2,0.1-0.4,0.2-0.6c-0.2-0.1-0.3-0.1-0.4-0.2c0.2-0.3,0.5-0.5,0.7-0.8
		c-0.2-0.1-0.3-0.1-0.5-0.1c-0.1-0.1,0-0.2,0.1-0.3c0.2-0.1,0.3-0.2,0.5-0.3c0.1-0.1,0.1-0.2,0.1-0.3c0-0.1-0.2-0.1-0.3-0.1
		c-0.1,0-0.3,0-0.4,0C3.5,9.7,3.6,9.7,3.9,9.6c0.2-0.1,0.4-0.2,0.6-0.3c0.1-0.1,0.1-0.2,0.1-0.3c0-0.1-0.2-0.1-0.3-0.1
		C4.2,8.9,4.1,8.9,4,8.9C4,8.9,4,8.9,4,8.9z M7.2,9C6.9,9.2,6.9,9.3,7,9.4c0.1,0.1,0.3,0.1,0.4,0C7.6,9.4,7.6,9.3,7.5,9
		c0,0,0.1,0,0.1-0.1c0.1,0,0.3-0.1,0.3-0.3c0-0.2-0.2-0.2-0.3-0.2c-0.2,0-0.4,0-0.5,0C6.9,8.6,7.2,8.8,7.2,9z M7.7,13.9
		c-0.3-0.1-0.5-0.2-0.7-0.3c-0.2-0.1-0.3,0-0.4,0.2c-0.1,0.2,0,0.3,0.2,0.4C7.1,14.4,7.5,14.3,7.7,13.9z M7.3,8
		c0.2,0,0.4-0.1,0.5-0.1C7.9,7.8,8,7.6,7.8,7.5C7.7,7.4,7.1,7.4,7,7.5C6.8,7.6,6.8,7.8,7,7.9C7.1,7.9,7.2,7.9,7.3,8z M7.5,11.5
		c0.1-0.1,0.2-0.1,0.3-0.2C7.9,11.1,7.7,11,7.6,11c-0.1,0-0.1-0.1-0.2-0.1c-0.2,0-0.3,0.1-0.4,0.2c0,0.2,0,0.3,0.2,0.3
		C7.3,11.5,7.4,11.5,7.5,11.5z M7.5,12.8c-0.1-0.2-0.2-0.3-0.4-0.5c-0.1,0-0.2-0.1-0.3,0c-0.1,0-0.1,0.2-0.1,0.3
		c0,0.2,0.4,0.5,0.5,0.4C7.4,13.1,7.4,13,7.5,12.8z M7.4,10.6c0.2,0,0.4-0.1,0.4-0.2c0-0.1-0.2-0.3-0.4-0.3c-0.2,0-0.2,0.1-0.3,0.2
		C7.1,10.4,7.2,10.5,7.4,10.6z"/>
	<path class="st1" d="M2.1,17.2c0.7-0.5,2.3-0.9,3-0.7c0,0.4,0,0.8,0,1.3c-0.5,0-0.9,0-1.3-0.1c-0.4-0.1-0.9-0.2-1.3-0.3
		C2.3,17.4,2.2,17.3,2.1,17.2z"/>
	<path class="st1" d="M11.4,16.7c1.3,0,2.5,0.2,2.9,0.5c0,0,0,0.1,0,0.1c-0.3,0.1-0.7,0.3-1,0.3c-0.5,0.1-1,0.1-1.4,0.1
		c-0.3,0-0.4,0-0.4-0.4C11.4,17.2,11.4,17,11.4,16.7z"/>
	<path class="st1" d="M6.6,16.2c0.3,0,0.5,0,0.7,0c0.2,0,0.4,0.1,0.4,0.4c0,0.4,0.1,0.8,0.1,1.2c0,0.3,0,0.3-0.3,0.3
		c-0.2,0-0.3,0-0.5,0c-0.1,0-0.3-0.1-0.3-0.2C6.6,17.3,6.5,16.8,6.6,16.2z"/>
	<path class="st1" d="M9.3,17.7c0-0.5-0.1-0.9-0.1-1.2c0.3-0.2,0.5-0.1,0.8,0c0,0.4,0,0.8,0,1.3C9.8,17.7,9.6,17.7,9.3,17.7z"/>
	<path class="st1" d="M8.4,28.6c0,0.2,0,0.3,0,0.4c0,0.4,0,0.9,0,1.3c0,0.7,0,1.4,0,2.1c0,0.2-0.1,0.4-0.2,0.7
		c0-0.2-0.1-0.2-0.1-0.3c0-0.6,0.1-1.3,0.1-1.9c0-0.6,0-1.2,0-1.8C8.2,29.1,8.1,28.9,8.4,28.6z"/>
	<path class="st1" d="M8.6,15.5c0.9,0.1,1.9-0.1,2.8,0.4c-0.9-0.1-1.8-0.2-2.8-0.3C8.6,15.5,8.6,15.5,8.6,15.5z"/>
	<path class="st1" d="M9.8,19c-0.2-0.1-0.3-0.1-0.4-0.2c0,0,0-0.2,0-0.3c0.1-0.1,0.3-0.1,0.5-0.1c0.2,0.1,0.3,0.2,0.2,0.4
		C10,18.9,9.9,18.9,9.8,19z"/>
	<path class="st1" d="M5.9,21c0,0.8-0.1,1.6-0.1,2.4c0,0-0.1,0-0.1,0c0-0.8,0.1-1.6,0.1-2.4C5.8,21,5.8,21,5.9,21z"/>
	<path class="st1" d="M8.4,42.3c0-0.6,0-1.3-0.1-1.9c0,0,0.1,0,0.1,0c0.1,0.6,0.1,1.3,0.1,1.9C8.5,42.3,8.4,42.3,8.4,42.3z"/>
	<path class="st1" d="M12.4,14.7c0.2,0,0.4-0.1,0.7-0.2c0,0.1,0,0.2,0.1,0.3c-0.3,0-0.5,0.1-0.7-0.1C12.4,14.8,12.4,14.7,12.4,14.7z
		"/>
	<path class="st1" d="M11.4,18.8c0-0.1,0.1-0.2,0.1-0.2c0.3-0.1,0.6-0.1,0.9-0.2c0,0,0,0.1,0,0.1C12.1,18.6,11.7,18.7,11.4,18.8z"/>
	<path class="st1" d="M3.9,18.4c0.3-0.1,0.6-0.2,0.9,0.1C4.4,18.6,4.2,18.4,3.9,18.4z"/>
	<path class="st1" d="M5.5,25.2c0-0.1,0-0.3,0.1-0.4c0,0,0,0,0.1,0c0,0.1,0,0.3,0,0.4C5.6,25.2,5.6,25.2,5.5,25.2z"/>
	<path class="st1" d="M8.4,42.9c0-0.1,0-0.1,0-0.2c0,0,0.1,0,0.1,0C8.5,42.8,8.5,42.8,8.4,42.9C8.4,42.9,8.4,42.9,8.4,42.9z"/>
	<path class="st0" d="M7.2,9C7.2,8.8,6.9,8.6,7.1,8.5c0.1-0.1,0.3,0,0.5,0c0.1,0,0.3,0,0.3,0.2c0,0.2-0.1,0.2-0.3,0.3
		c0,0-0.1,0-0.1,0.1c0.1,0.4,0.1,0.4-0.1,0.5C7.2,9.5,7.1,9.6,7,9.4C6.9,9.3,6.9,9.2,7.2,9z"/>
	<path class="st0" d="M7.7,13.9c-0.2,0.4-0.6,0.5-0.9,0.3c-0.2-0.1-0.3-0.2-0.2-0.4c0.1-0.2,0.2-0.2,0.4-0.2
		C7.2,13.7,7.4,13.8,7.7,13.9z"/>
	<path class="st0" d="M7.3,8c-0.1,0-0.2,0-0.3-0.1C6.8,7.8,6.8,7.6,7,7.5c0.2-0.1,0.7-0.1,0.9,0.1C8,7.6,7.9,7.8,7.8,7.8
		C7.6,7.9,7.4,7.9,7.3,8z"/>
	<path class="st0" d="M7.5,11.5c-0.1,0-0.2,0-0.3,0c-0.2,0-0.2-0.2-0.2-0.3c0-0.2,0.2-0.3,0.4-0.2c0.1,0,0.1,0,0.2,0.1
		c0.1,0.1,0.3,0.1,0.2,0.3C7.8,11.4,7.6,11.4,7.5,11.5z"/>
	<path class="st0" d="M7.5,12.8c-0.1,0.1-0.2,0.2-0.2,0.2c-0.2,0-0.6-0.3-0.5-0.4c0-0.1,0.1-0.2,0.1-0.3c0.1,0,0.2,0,0.3,0
		C7.3,12.5,7.4,12.7,7.5,12.8z"/>
	<path class="st0" d="M7.4,10.6c-0.2,0-0.3-0.1-0.3-0.3c0-0.2,0.1-0.2,0.3-0.2c0.2,0,0.4,0.2,0.4,0.3C7.7,10.5,7.6,10.6,7.4,10.6z"
		/>
</g>
</svg>
