<?xml version="1.0" encoding="utf-8"?>
<!-- Generator: Adobe Illustrator 19.1.0, SVG Export Plug-In . SVG Version: 6.00 Build 0)  -->
<svg version="1.1" id="Layer_1" xmlns="http://www.w3.org/2000/svg" xmlns:xlink="http://www.w3.org/1999/xlink" x="0px" y="0px"
	 viewBox="0 0 326.3 441.9" style="enable-background:new 0 0 326.3 441.9;" xml:space="preserve">
<style type="text/css">
	.st0{fill-rule:evenodd;clip-rule:evenodd;}
</style>
<path class="st0" d="M309.6,2.1c0.1,1.2,0,2.5,0,3.7c0,1.6-0.2,3.1,0,4.7c0.3,1.8,0.3,3.6,0.3,5.5c0.1,3.1,0.1,6.1,0.1,9.2
	c0,0.4,0.1,0.8,0.1,1.2c-0.2,3.5,0,7,0.3,10.5c0.2,2.2,0.6,4.3,0,6.5c-0.5,2.1-0.4,4.2,0,6.2c0.2,1.1,0.2,2.2,0.1,3.3
	c-0.1,0.6,0,1.2-0.1,1.7c-0.3,1.1-0.6,2.3-1.2,3.3c-0.6,1-1.6,1.7-2.4,2.6c-0.5,0.6-1,1.3-1.5,1.9c-0.9,1-1.9,1.9-2.9,2.9
	c-1.4,1.4-1.9,3.1-1.7,5c0.1,0.6,0.2,1.1,0.2,1.7c-0.2,3-0.4,5.9-0.6,8.9c-0.1,1.4-0.4,2.8-0.5,4.1c-0.2,3.5-0.4,7.1-0.7,10.6
	c-0.4,5-0.7,10-0.6,15c0,1.7,0,3.4,0.2,5.2c0.1,0.7,0.1,1.4,0,2.1c-0.1,1.6-0.7,3.2-0.3,4.9c0.2,0.9,0,2.1-0.7,2.5
	c-1.5,0-2.5,0.1-3.6,0.1c-0.6,0-1.2,0.1-1.7-0.1c-1.1-0.4-2.1-0.2-3,0.2c-1.8,0.7-3.6,1-5.5,0.9c-1,0-2.1,0-3.1,0.1
	c-2,0.3-2.6,1.5-2.7,3.1c-0.2,3.7-0.5,7.4-0.6,11.1c-0.1,1.9,0.1,3.9,0.2,5.8c0,1,0.4,1.8,1.5,2.1c0.5,0.1,1,0.5,1.5,0.9
	c1.3,1,2.4,2.1,3.7,3.1c1.7,1.3,3.6,2.5,5.4,3.7c1.6,1.2,3.3,2.4,4.8,3.7c0.6,0.4,1,1,1,1.9c-0.1,2.4-0.3,4.9-0.4,7.3
	c-0.2,3-0.3,6-0.4,9c0,1,0.3,2.1,0.4,3.1c0.1,1.5,0.1,3.1,0.2,4.6c0,0.6,0.2,1.2,0.3,1.8c0.2,4.1-0.1,8.1-1,12.1
	c-0.3,1.3-0.5,2.7,0.1,4c0.5,1.2,0.5,1.7-0.5,2.4c-1.2,0.8-2,1.8-2.7,3c-0.4,0.7-1,1.2-1.4,1.9c-1,1.4-2.2,2.7-3,4.2
	c-2.2,3.7-4.2,7.5-6.3,11.3c-1.3,2.4-2.6,4.7-3.9,7.1c-0.2,0.4-0.5,0.8-0.4,1.1c0.3,0.8,0,1.4-0.5,2c-0.3,0.5-0.5,1.1-0.6,1.6
	c-0.6,5.2-2.1,10.3-1.2,15.6c0,0.2,0,0.3,0,0.5c-0.2,3.2-0.4,6.4-0.8,9.5c-0.3,2.7-1,5.5-0.4,8.2c0,0.1,0,0.2,0,0.3
	c-0.5,2.3,0,4.5,0.7,6.7c1.4,4.8,2.8,9.7,4.3,14.5c0.8,2.6,1.4,5.2,1.6,7.9c0.1,1.4,0.1,3-0.4,4.3c-0.4,1.1-0.6,2.2-0.7,3.3
	c0,0.8-0.1,1.6-0.2,2.3c-0.1,0.8-0.1,1.6-0.1,2.3c0,2.4,0,4.9,0.1,7.3c0.1,1.5,0.3,3,0.5,4.5c0,0.2,0.2,0.5,0.3,0.7
	c0.6,1.4,1.2,2.8,1.8,4.3c1,2.7,1.8,5.4,3.3,7.9c0.8,1.4,1.4,3,0.5,4.6c-0.4,0.7-0.5,1.3-0.3,2.1c0.1,0.4,0.1,0.8,0.2,1.2
	c0.1,1-0.1,1.6-0.8,1.8c-1,0.3-1.6,0-2-0.9c-0.5-1.1-0.9-2.3-0.7-3.6c0.2-1.4,0.1-2.8-0.5-4.2c-0.5-1.2-0.9-2.5-1.1-3.9
	c-0.2-1.1-0.7-2.2-1.2-3.2c-0.2-0.4-0.7-0.7-1.3-1.4c-0.2,0.4-0.3,0.7-0.4,0.9c-1.5,2.2-2,4.6-2.1,7.1c0,1.8-0.1,3.6,0.1,5.3
	c0.3,2.6-0.5,5.1-1.1,7.5c-0.7,2.4-1.5,4.8-2,7.2c-0.1,0.5-0.4,1.1-0.7,1.5c-0.5,0.7-1.5,0.6-2.1,0.1c-0.7-0.6-0.7-1.1-0.1-2
	c0.3-0.5,0.6-1,0.7-1.5c0.4-1.1,0.6-2.2,1-3.3c1.2-2.9,2-5.9,1.9-9.1c0-0.6-0.1-1.1-0.6-1.5c-0.3-0.2-0.5-1-0.3-1.2
	c0.7-0.9,0.5-1.8,0.3-2.8c-0.2-0.7-0.1-1.4-0.2-2c-0.2-0.8-0.5-1.7-0.7-2.5c-0.1-0.4-0.3-0.9-0.3-1.3c0.1-1.4,0.3-2.8,0.5-4.2
	c0.1-0.7,0.4-1.1,0.8-1.6c0.8-0.8,1.6-1.7,2.1-2.7c0.3-0.7,0.7-1.1,1.3-1.4c0.2-0.1,0.4-0.3,0.6-0.5c-0.1-0.4-0.3-0.7-0.4-1
	c-0.3-2.2-1.1-4.4,0.2-6.6c0-0.1,0.1-0.2,0.1-0.3c0-2.4-0.1-4.8-0.2-7.2c0-1.2-0.2-2.5-0.3-3.7c-0.1-1.2-0.2-2.5-0.5-3.7
	c-0.4-1.6-1-3.1-1.4-4.6c-0.3-1.3-0.7-2.4-1.4-3.5c-0.2-0.4-0.3-0.9-0.5-1.3c-0.2-0.7-0.4-1.5-0.6-2.2c-0.3-1-0.6-2-0.9-3
	c-0.4-1.3-1.1-2.6-1.2-4c0-0.2-0.3-0.4-0.4-0.6c-0.4-0.6-0.8-1.2-1.3-1.7c-1.3-1.2-1.3-2.7-0.9-4.2c0.5-2,0.9-4,0.8-6
	c-0.2-3.8,0.6-7.4,1.2-11.1c0.2-1.3,0.2-2.6,0.1-3.9c-0.2-2-0.5-4-0.7-6c0-0.4,0-0.7,0-1.1c0-1.1,0.2-2.3,0.1-3.4
	c-0.1-1,0.1-1.8,0.5-2.7c0.4-0.9,0.7-1.9,0.7-2.9c0-1.8,0.4-3.5,1.1-5.2c0.6-1.4,1-2.9,1.5-4.3c0.3-0.9,0.6-1.8,1.1-2.6
	c0.8-1.3,1.1-2.7,1.3-4.2c-0.9,0.8-1.7,1.8-2.6,2.4c-2.7,1.8-3.7,4.8-5.5,7.3c-0.3,1.8-1,3.3-1.7,5c-0.8,1.9-1.3,3.8-1.9,5.8
	c-0.1,0.3-0.4,0.8-0.3,1c0.5,1.5-0.4,3.2,0.5,4.7c0.3,0.6,0.3,1.3,0.5,2c0.2,1.2,0.2,2.4-0.2,3.5c-0.4,1-0.8,2-1.3,3
	c-0.8,1.8-1.9,3.4-3.7,4.2c-1.2,0.6-2.3,1.3-3.5,1.9c-1.3,0.6-1.8,1.6-2,2.8c-0.2,1.2-0.4,2.6,1.1,3.4c0.5,0.3,0.7,0.9,0.5,1.5
	c-0.5,1.1,0.1,1.9,0.9,2.5c1,0.8,2,1.5,2.9,2.4c0.8,0.8,1.3,1.9,1.8,2.8c0.4,0.7,0.5,1.5,0.9,2.2c1.3,2.3,2.3,4.8,2.5,7.4
	c0.1,1,0.3,2.1,0.6,3.1c1.1,3.2,0.4,6.5,0,9.7c-0.2,1.3-0.3,2.5-0.1,3.7c0.3,1.6,0.5,3.3,0.9,4.9c0.4,1.5,0.1,2.9,0,4.3
	c0,0.2-0.1,0.6-0.3,0.7c-0.5,0.3-0.6,0.7-0.7,1.3c-0.1,0.9-0.4,1.8-0.6,2.7c-0.1,0.7-0.4,1.2-1.2,1.2c-0.8,0-1.2-0.3-1.4-1.2
	c-0.1-0.8-0.2-1.6-0.1-2.3c0.2-1.5,0.6-3,0.6-4.5c0-3-0.1-5.9-0.2-8.9c0-2.1,0-4.2,0-6.2c0-1-0.3-2-0.1-3c0.3-1.7-0.3-3.3-0.8-4.9
	c-0.3-0.8-0.9-1.4-1.4-2.1c-0.5-0.7-1.1-1.3-1.7-2c-0.4-0.4-0.7-0.9-1-1.4c-1.2-1.6-2.4-3.1-3.6-4.7c-0.2-0.3-0.4-0.5-0.7-0.8
	c-0.4,1.5-0.2,3.2,0.3,5c0.4,1.7,1,3.4,0.6,5.2c-0.2,1-0.2,1.9,0.2,2.8c0.8,1.6,1.6,3.2,2.4,4.7c0.7,1.3,1.3,2.7,0.9,4.2
	c-0.4,1.4-1.1,2.8-2,4.1c-1.5,2.2-1.5,4.5-1,6.9c0.4,2,1,3.9,1.7,5.9c0.7,2,0.7,4,0.7,6c0,4.1-0.3,8.2-0.5,12.3c0,0.5,0,1.1-0.3,1.5
	c-0.2,0.4-0.6,0.7-1,0.8c-0.3,0.1-0.9-0.2-1-0.5c-0.4-1.3-1.1-2.5-0.8-3.9c0.4-1.7,0.6-3.5,0.8-5.2c0.1-0.8,0.1-1.6-0.1-2.3
	c-0.6-2.3-1.3-4.6-2-6.9c0-0.1-0.2-0.2-0.4-0.4c-0.2,0.3-0.3,0.5-0.4,0.8c-0.5,1.9-1,3.8-1.5,5.7c-0.6,2-1.3,3.9-2,5.9
	c-0.1,0.4-0.4,0.7-0.7,1c-0.4,0.5-0.9,0.4-1.4,0c-0.5-0.4-0.6-0.9-0.4-1.4c0.5-1.5,0.5-3.1,1.5-4.4c0.5-0.7,0.6-1.6,0.9-2.5
	c0.4-1.5,0.8-3,1.2-4.5c0.5-1.9,1-3.7,0.9-5.7c0-0.5,0.2-1,0.3-1.5c0.3-0.9,0.7-1.7,0.9-2.6c0.2-1.8,0.4-3.6,0.4-5.5
	c0-1.9-0.3-3.8-0.5-5.7c-0.2-1.6-0.3-3.2-0.5-4.8c-0.1-1.9-0.3-3.7-0.3-5.6c0.1-1.7,0.1-3.4-0.2-5.1c-0.2-1.2-0.2-2.5-0.1-3.7
	c0-0.6,0.2-1.2,0.5-1.6c0.5-0.8,0.7-1.5,0.5-2.4c-0.2-0.8,0.1-1.4,0.9-1.8c0.3-0.2,0.6-0.3,0.9-0.5c0.1-1.3-0.1-2.4-1-3.6
	c-0.5,0.9-1,1.7-1.4,2.5c-0.5,0.9-0.8,1.9-1.4,2.8c-1.3,1.9-2.7,3.7-4.2,5.5c-0.7,0.8-1.5,1.6-2.2,2.4c-1.2,1.5-1.9,3.2-2.6,5
	c-0.6,1.5-0.8,3.1-0.8,4.7c0,0.8-0.1,1.7-0.3,2.5c-0.2,1.1-0.5,2.2-0.1,3.4c0.1,0.3,0.1,0.6,0,0.9c-0.2,1.5-0.6,3.1-0.8,4.6
	c-0.2,1.7-1.1,2.9-2.2,4c-0.8,0.8-1.6,0.7-2.1-0.3c-0.5-1.5-1.1-2.9-0.4-4.5c0.3-0.7,0.5-1.4,0.7-2.1c0.3-1.2,0.7-2.3,0.9-3.5
	c0.2-1.1-0.5-1.6-1.5-1.2c-0.6,0.2-1.1,0.6-1.7,0.8c-0.9,0.2-1.9,0.4-2.9,0.5c-1,0-2.1-0.2-3.1-0.1c-1.2,0-2.5,0.2-3.7,0.3
	c-1,0.1-1.4-0.2-1.5-1c-0.1-0.8,0.4-1.6,1.2-1.7c0.5-0.1,1,0,1.6,0c2.4-0.2,4.9-0.1,7.2-1.2c0.9-0.4,1.5-0.9,2-1.7
	c0.3-0.6,0.6-1.2,0.9-1.8c0.5-1.2,0.9-2.4,1.8-3.4c0.5-0.5,0.8-1.2,1.2-1.8c0.6-1.1,1.1-2.2,1.7-3.3c1.3-2.3,2.8-4.5,4.9-6.2
	c1.8-1.4,2.6-3.7,4.6-4.9c0.1-0.1,0.2-0.2,0.2-0.4c0.3-1.2,0.6-2.4,0.9-3.6c-1.6,0.5-3.1,1-4.5,1.4c-0.2,0.1-0.4,0.2-0.6,0.2
	c-2.1,0.7-4.2,1.5-6.4,2c-3,0.6-4.9,2.5-6.5,4.9c-0.6,1-1.2,2.1-1.8,3c-0.8,1.1-2,1.7-3.1,2.4c-1.2,0.8-2,0.6-3-0.2
	c-0.3-0.2-0.6-0.5-0.8-0.7c-2-1.5-4.9-0.9-6,1.3c-0.6,1.3-1.6,2.1-2.8,2.8c-1.4,0.8-2.6,1.8-3.1,3.4c-0.2,0.6-0.4,1.3-0.7,1.9
	c-0.5,1.1-1.1,2.2-1.6,3.3c-0.3,0.5-0.6,1-1,1.4c-1.6,1.6-2.3,3.7-2.9,5.8c-1,3.3-2.2,6.6-3.4,9.9c-0.2,0.6-0.4,1.3-0.6,1.9
	c-0.3,1.4-0.5,2.9-0.8,4.3c-0.4,1.5-0.8,3-1.3,4.5c-0.2,0.7-0.9,1.1-1.6,0.9c-0.7-0.2-0.8-0.8-0.7-1.4c0.1-0.9,0.3-1.8,0.6-2.6
	c0.8-1.9,1.3-3.8,1.5-5.9c0.1-1,0.3-1.9,0.5-2.9c0.4-2,0.8-4,1.2-6c0.1-0.6,0.3-1.3-0.3-2c-1.1,1.2-2.4,1.8-4,1.9
	c-0.8,0.1-1.7,0.4-2.2,1c-1.2,1.3-2.6,1.8-4.3,1.8c-0.6,0-1.1,0-1.3-0.8c-0.2-0.7,0.1-1.5,0.8-1.6c1.8-0.3,3.3-1.3,4.6-2.5
	c0.2-0.2,0.4-0.3,0.7-0.4c1-0.2,1.7-1,2.4-1.7c1.5-1.6,2.6-3.3,3.6-5.2c0.7-1.4,1.7-2.7,2.7-4c0.7-0.9,1.5-1.8,2.2-2.6
	c0.9-1,1.8-2,2.7-3c0.6-0.6,1.4-1.1,2.1-1.7c1.6-1.2,3.3-2.4,4.9-3.7c0.5-0.4,1-0.9,1.4-1.4c0.6-0.9,1.3-1.2,2.3-1
	c1.9,0.4,3.8,0.8,5.6,1.3c0.9,0.2,1.4-0.1,1.9-0.8c0.7-0.9,1.5-1.8,2.3-2.7c0.7-0.8,1.3-1.6,2-2.4c0.6-0.7,1.2-1.5,1.9-2.2
	c0.7-0.7,1.3-1.3,2.1-1.9c0.5-0.3,1.1-0.6,1.7-0.7c1-0.1,2.1,0,3.1,0.1c1.4,0.2,2.6-0.3,3.5-1.4c1.2-1.3,2.8-2.2,3.5-3.9
	c0.1-0.1,0.2-0.2,0.3-0.3c2-1.6,4.1-3.2,6.1-4.9c0.4-0.3,0.8-0.5,1.1-0.8c1.3-1,2.5-2,3.8-3c1.1-0.9,1.4-2,1.2-3.4
	c-0.1-0.7-0.4-1.3-0.5-2c-0.1-0.9-0.3-1.8-0.2-2.8c0.1-1.8,0.4-3.5,0.5-5.3c0-1.4,0.3-2.7,1-3.9c1.6-2.5,2.5-5.4,4.8-7.4
	c0.2-0.1,0.2-0.3,0.3-0.5c1-1.7,2-3.4,3-5.1c0.4-0.6,0.7-1.2,1.1-1.8c-0.8-0.8-1.5-0.7-2.1-0.4c-0.9,0.5-1.7,1-2.5,1.6
	c-0.6,0.4-1.2,0.6-1.9,0.4c-1.2-0.5-2.1-0.1-2.7,0.8c-1.2,1.7-2.9,2.4-4.8,2.9c-0.9,0.2-1.9,0.5-2.7,0.9c-1.7,1-3.2,2.1-4.9,3.1
	c-0.5,0.3-0.8,0.7-0.6,1.3c0.6,1.9,0.3,3.9,0.4,5.9c0.1,1.7-0.5,3.2-1.3,4.6c-0.8,1.4-1.5,1.7-3.1,1.3c-1.6-0.4-4,0.7-4.3,2.3
	c-0.4,1.6-1.4,2.5-2.5,3.4c-1.2,0.9-2.3,0.5-2.5-0.9c-0.3-1.8,0-3.5,1.5-4.7c1.2-0.9,1.9-2.1,2.4-3.5c0.2-0.6,0.8-1.2,1.3-1.6
	c0.6-0.4,1.4-0.7,2.1-0.9c1.5-0.5,2.2-1.8,1.8-3.3c-0.4-1.7-0.7-3.3-1.1-5.1c-1.1-0.3-1.2-0.3-2.1,0.1c-0.6,0.3-1.1,0.7-1.7,0.7
	c-1.8,0.2-3.2,1.2-4.7,2c-1.2,0.6-2.5,1.1-3.1,2.5c-1.2,2.6-3.1,4.7-5.2,6.6c-1,0.9-2,1.9-2.8,3c-1.7,2.3-3.1,4.8-4.2,7.5
	c-0.3,0.8-0.6,1.6-1.1,2.2c-1.5,2.1-3.1,4.2-4.8,6.2c-2.1,2.6-4,5.2-5.4,8.2c-0.5,1.1-1,2.2-1.8,3.1c-1.3,1.4-2.8,2.6-4.2,4
	c-0.4,0.4-0.8,0.9-1,1.4c-0.4,0.9-1,1.3-1.9,1.3c-0.5,0-1,0.3-1.3,0.6c-0.4,0.3-0.7,0.8-1,1.2c-0.8,0.9-1.7,1.8-2.9,2
	c-1.5,0.1-2,1.1-2.7,2.2c-0.9,1.7-2.1,3.4-3.2,5c-0.2,0.3-0.8,0.5-1.2,0.6c-0.2,0-0.4-0.6-0.6-1c-0.1-0.1,0-0.3,0-0.2
	c0.8-1,1.5-1.8,2-2.7c0.6-1,1.2-2,1.7-3c0.6-1.4,1.5-2.1,2.9-2.2c1.1-0.1,1.9-0.9,2.4-1.8c0.1-0.2,0.1-0.7-0.1-0.9
	c-0.1-0.2-0.6-0.2-0.8-0.2c-1.2,0.3-2.4,0.6-3.6,0.9c-0.7,0.2-1.5,0.5-2.2,0.9c-1.5,0.7-2.9,1.5-4.3,2.3c-1.3-1.1-1.5-2-0.6-2.8
	c1.2-1,2.4-1.9,3.8-2.5c1.6-0.7,3.3-1.1,4.9-1.5c1.4-0.3,2.9-0.4,4.3-0.7c0.4-0.1,0.9-0.3,1.2-0.6c0.5-0.5,0.9-1.2,1.1-1.8
	c0.4-1,0.9-1.8,1.6-2.6c0.6-0.6,1-1.5,1.5-2.3c0.7-1.1,1.4-2.3,2.1-3.4c0.5-0.7,1.1-1.3,1.5-2c1.1-1.9,2.2-3.8,3.3-5.6
	c1-1.7,1.9-3.5,3.6-4.6c0.1,0,0-0.2,0.1-0.4c-0.3-0.5-0.7-1.1-1-1.6c-0.1,0-0.2,0-0.2,0.1c-0.1,0.1-0.3,0.2-0.3,0.3
	c-0.9,1.3-2.1,1.7-3.7,1.3c-0.5-0.1-1.2,0-1.6,0.3c-1.4,0.8-3,0.5-4.4,0.8c-0.3,0.1-0.8-0.3-1.1-0.5c-0.5-0.4-0.8-0.9-1.2-1.3
	c0.4-1.1,1.1-1.4,2-1.7c0.9-0.3,1.8-0.7,2.8-1c1.1-0.4,2.1-0.9,3.2-1.3c0.5-0.2,1-0.5,1.6-0.7c1-0.5,2.1-0.9,3.1-1.4
	c0.4-0.2,0.8-0.3,0.7-0.9c-1.3-0.3-2.6-0.5-3.9-0.9c-1.1-0.3-2.2-0.7-3.3-1.1c-0.9-0.3-1.7-0.3-2.5,0.2c-0.5,0.3-1.3,0.5-1.9,0.4
	c-1.4-0.3-2.9-0.3-4.2-1.2c-0.9-0.6-2-1-2.4-2.1c-0.5-1.1-1.1-2.3-0.4-3.6c0.1-0.3,0.1-0.8,0-1c-1.2-1.3-2.3-2.9-4.4-2.9
	c-1.6,0-3.1-0.2-4.7-0.1c-0.9,0-1.5-0.2-2-1c-0.5-0.8-1.1-1.1-2.1-1c-2.4,0.4-4.9,0.6-7.1,1.5c-0.8,0.3-1.7,0.5-2.5,0.7
	c-1.5,0.4-3.1,0.6-4.5,1.1c-1,0.3-2,0.7-3,0.6c-1.7-0.1-3.4,0.1-5,1c-0.8,0.5-1.7,1-2.6,1.5c-1.1,0.6-2.2,1.1-3.5,0.7
	c-1.1-0.3-2.1-0.6-3.2-0.6c-1.6,0-3.1-0.5-4.5-1.2c-1.9-1-2.1-2.6-0.5-4.1c0.2,0.1,0.5,0.1,0.7,0.2c1.9,1.2,4.1,1.7,6.2,2.6
	c1.1,0.5,2.1,0.6,3.1-0.1c1-0.7,2.2-1,3.4-1.1c0.4,0,0.7-0.1,1.1-0.2c1.4-0.6,2.9-0.7,4.4-0.8c2.1-0.2,4.2-0.8,5.9-2.3
	c0.7-0.6,1.8-1.1,2.7-1.2c1.7-0.1,3.2-0.7,4.8-1.1c0.8-0.2,1.6-0.6,2.1-1.4c-3.3-0.6-6.4-1.3-9.5-1.9c-0.1,0.1-0.2,0.1-0.3,0.2
	c-0.8,1-1.7,1.8-3.2,1.7c-0.4,0-0.9,0.3-1.3,0.5c-0.6,0.3-1.1,0.7-1.6,0c-0.6-0.7-0.7-2.2-0.3-2.6c0.9-0.9,1.8-1.7,2.7-2.5
	c0.8-0.7,1.6-0.9,2.6-0.6c0.6,0.2,1.3,0.3,2,0.3c3.4-0.3,6.6,0.6,9.7,1.9c1.9,0.8,3.9,1.5,6,1.4c1.1-0.1,2.3,0.2,3.4,0.5
	c2.3,0.6,4.4,1.8,6.7,2.4c2.2,0.6,4.3,0.8,6.4,0.6c1.2-0.1,2.5,0.1,3.6-0.3c2-0.7,4-1.7,5.9-2.8c1.6-0.9,3.2-1.6,4.9-1.9
	c0.8-0.2,1.6-0.3,2.4-0.5c1.5-0.4,3-0.5,4.5-0.2c1.1,0.2,2.1,0.1,3.2-0.4c0.6-0.3,1.4-0.4,2.1-0.5c0.7-0.1,1.4-0.1,2-0.3
	c1.7-0.5,3.3-0.3,4.9,0.1c1.3,0.4,2.6,0.6,4,0.5c1.4-0.1,3-0.4,4.3,0.3c1.2,0.7,2.5,0.9,3.8,1c2,0.2,4.1,0.3,6.1,0.3
	c1.2,0,1.8-0.4,2-1.5c0.3-1.2,1.1-1.5,2.1-1.8c0.7-0.2,1.5-0.3,2.2-0.7c2.2-1.1,4.3-2.4,6.4-3.5c3.1-1.6,6.1-3.1,9.2-4.6
	c0.8-0.4,1.7-0.9,2.5-1.3c1.1-0.5,1.6-1.2,1.5-2.5c0-2.3,0.1-4.7,0.1-7c0-1.3-0.3-2.6-0.2-3.9c0.4-2.9-0.3-5.7-0.5-8.5
	c-0.2-2.9-0.6-5.8-0.9-8.7c0.7-2-0.7-3.2-1.9-4.4c-0.4-0.4-0.8-0.7-1.2-1c-1.5-1.3-3.1-2.6-4.6-3.9c-2.2-1.9-4.3-3.8-6.5-5.6
	c-2.2-1.7-4.1-3.7-5.9-5.8c-0.2-0.2-0.3-0.5-0.5-0.5c-0.9-0.2-1.3-1-1.9-1.6c-0.7-0.7-0.3-1.6-0.9-2.2c0.8-0.7,1-1.5,0.9-2.4
	c-0.1-1.9-0.3-3.7-0.2-5.6c0.1-4.6,0.2-9.2,0.4-13.7c0-1.3,0.2-2.6,0.2-3.9c0-1.7-0.1-3.3,0-5c0.2-2,1.5-3.3,3.5-3.7
	c0.7-0.2,1.4-0.5,2-0.8c0.7-0.4,1.3-1.1,1.9,0c0.1,0.1,0.3,0.2,0.4,0.1c1.5-0.2,3.1,0.1,4.5-1c0.3-0.3,1-0.2,1.5-0.3
	c0.6-0.1,1.2,0,1.8-0.2c1-0.2,1.9-0.7,2.8-0.8c1.8-0.2,3.6-0.3,5.5-0.4c0.8,0,1.6,0.1,2.3,0c2.1-0.4,4.2-0.8,6.3-1.3
	c0.3-0.1,0.6-0.1,0.9-0.3c0.7-0.3,1.3-0.8,1.3-1.7c0.1-1.6,0.2-3.2,0.5-4.8c0.7-4.3,0.9-8.6,0.4-12.9c-0.1-1,0.1-2.1-0.1-3.1
	c-0.4-2.2-0.4-4.4-0.3-6.7c0.3-3.8,0.6-7.6,0.9-11.4c0.1-1.3,0.4-2.6,0.3-3.9c-0.2-2.3,0.5-4.2,1.8-6c0.8-1.1,1.5-2.3,2.2-3.4
	c0.6-0.9,0.9-2.1,1.6-2.8c1.4-1.4,2.3-3.1,3.3-4.7c0.3-0.4,0.4-1,0.7-1.4c0.9-0.8,1.1-1.9,1.2-2.9c0.1-1,0.1-2,0.1-2.9
	c0-1.9-0.2-3.8-0.2-5.8c-0.1-1.9-0.2-3.8-0.1-5.6c0.1-2,0.4-4,0.4-6.1c0.1-1.6-0.1-3.1-0.1-4.7c-0.1-1.7-0.2-3.4-0.2-5.2
	c0-1.1,0.3-2.3,0.3-3.4c-0.1-2.3-0.2-4.7-0.4-7c-0.1-1.7,1.5-3.8,3.2-3.9c1.1-0.1,2.2,0.1,3.4,0.2c0.9,0,1.8,0.1,2.6,0
	c0.7-0.1,1.4-0.5,2.4-0.9C309.3,0.9,309.6,1.5,309.6,2.1z M219.2,223.1c-1-0.1-1.9,0.2-2.8,0.6c-2.7,1.2-5.6,2.3-8.3,3.6
	c-2.1,1-4.4,1.3-6.6,1.7c-1,0.2-2,0.6-3,0.9c-0.2,0.1-0.5,0.2-0.7,0.2c-1.3,0.1-2.5,0.4-3.7,1.1c-0.5,0.3-1.2,0.3-1.8,0.3
	c-0.8,0-1.1,0.3-1.3,1c-0.6,2-0.3,2.9,1.7,3.8c1.5,0.7,3.1,1.2,4.9,0.5c1.5-0.5,3.1,0,4.5,0.7c1.6,0.8,3.2,1.2,5,1
	c1.4-0.1,2.5-0.5,3.5-1.4c0.6-0.5,1.2-0.7,2.1-0.6c1.5,0.2,2.7-0.8,3.7-2c0.7-0.9,1.3-1.9,1.9-2.9c1-1.7,2.3-2.9,3.9-4
	c1.7-1.2,3.3-2.5,5.3-4C224.4,223.5,221.8,223.3,219.2,223.1z M213.7,240c-1.6,0.2-2.8,1.7-3.4,4.2c0.1,0.1,0.2,0.1,0.3,0.2
	C211.6,243,212.6,241.6,213.7,240z M198.8,264.8c1.2-0.4,2.3-2,3-4C200,261.7,199.6,263.3,198.8,264.8z M211.4,221.2
	c-1.3,0.4-2.4,0.4-3.2,1.4C209.4,222.7,210.6,222.9,211.4,221.2z M241.4,224.8c-0.7-0.7-1.5-0.3-2.3-0.3
	C239.8,224.9,240.4,225.9,241.4,224.8z M203.8,245.4c-1,0.2-1,0.2-1.4,0.9C203.6,246.5,203.6,246.5,203.8,245.4z M229.1,220.9
	c0-0.1,0-0.2,0-0.3c-0.6,0-1.2,0-1.8,0c0,0.1,0,0.3,0,0.4C227.9,221,228.5,221,229.1,220.9z M192.9,228.5c-0.6-0.8-1.1-0.5-1.6-0.3
	C191.7,228.8,192.2,229,192.9,228.5z M292.1,165.3c0.1-0.1-0.1-0.6-0.2-0.6c-0.5-0.2-0.9,0-1,0.6
	C291.3,165.7,291.7,165.7,292.1,165.3z M257.4,150.8c0,0.9,0,0.9,0.7,1.2C257.9,151.6,257.7,151.2,257.4,150.8z M211,249.3
	c-0.1,0-0.1-0.1-0.2-0.1c-0.1,0.2-0.3,0.5-0.4,0.7c0.1,0,0.1,0.1,0.2,0.1C210.8,249.8,210.9,249.6,211,249.3z M270,243.3
	c-0.1,0-0.1,0-0.2,0c0,0.3,0,0.6,0,0.9c0.1,0,0.2,0,0.3,0C270,244,270,243.7,270,243.3z"/>
<path class="st0" d="M308.7,46.8c-0.2,0.5-0.4,0.8-0.4,1.2c-0.1,0.4,0,0.9,0,1.3c0,0.6,0.2,1.1,0.1,1.6c0,0.8-1.2,1.6-2.1,1.6
	c-1.3,0-2.6-0.1-3.8-0.1c-0.6,0-1.2,0.2-1.9,0.2c-0.9,0-1.9,0-2.8-0.1c-0.9,0-1.7-0.1-2.6,0c-1.1,0.1-2.2,0.2-3.3,0.3
	c-1,0-2.1,0-3.1,0c-1.1,0-2.1,0-3.2,0c-0.5,0-1.1,0-1.6,0.1c-0.6,0.1-1.2,0.2-1.6,0.6c-0.2,0.2-0.5,0.2-0.7,0.4
	c-0.9,0.5-1.8,1-2.5,1.7c-0.4,0.4-1,0.5-1.5,0.8c-0.6,0.4-1.3,0.7-1.9,1.1c-1,0.7-2,1-3.3,0.9c-0.7,0-1.4,0.1-2.1,0.2
	c-2.1,0.2-4.1,0.4-6.2,0.6c-1.2,0.1-2.4,0.1-3.7-0.1c-0.6-0.1-1.1,0-1.7,0c-2.4-0.2-4.7,0-7.1,0.3c-0.9,0.1-1.8,0.2-2.6,0.3
	c-0.5,0-0.8,0.3-0.9,0.7c-0.1,0.1-0.1,0.3-0.1,0.4c-0.2,1-0.4,2-0.6,3.1c-0.1,0.4,0,0.8,0,1.1c0,0.9,0,1.8-0.1,2.7
	c-0.1,0.5-0.3,0.9-0.4,1.4c-0.1,0.3,0,0.6-0.1,0.9c0,0.2,0,0.6-0.1,0.7c-0.6,0.7-0.4,1.5-0.5,2.2c0,0.1,0,0.2,0.1,0.2
	c0.6,0.3,0.2,0.6,0,0.9c-0.2,0.3-0.4,0.6-0.4,1c-0.2,1-0.9,1.6-2,1.7c-0.9,0.1-1.8,0-2.7,0.1c-0.7,0-1.4,0.1-2.1,0.1
	c-2.5,0.1-5,0.2-7.5,0.3c-1,0-2,0-3.1-0.1c-0.5,0-1,0.1-1.3,0.5c-0.3-0.3-0.8-0.1-1.2-0.4c-0.4-0.3-0.8-0.5-0.9-0.9
	c0-0.1-0.2-0.2-0.3-0.3c-1.1-0.9-2.2-1.8-3.2-2.8c-1-1.1-2.1-2.1-3.1-3.1c-0.7-0.7-1.5-1.5-2.2-2.2c-0.2-0.2-0.4-0.4-0.6-0.6
	c-0.7-0.6-1.3-1.2-2.4-0.9c-1.6-0.1-3.2-0.3-4.8-0.3c-1.6-0.1-3.1-0.3-4.7-0.1c-0.7,0.1-1.4-0.1-2.1,0c-1.3,0-2.6,0.1-3.9,0.1
	c-0.7,0-1.1,0.3-1.3,0.8c-0.2,0.4-0.5,0.8-0.7,1.2c-0.8,1.5-1.6,3.1-2.4,4.6c-0.6,1.1-1.3,2.1-1.9,3.2c-0.2,0.3-0.2,0.7-0.4,1.1
	c-0.1,0.5-0.3,0.9-1,1.1c-0.6,0.1-0.8,0.4-0.8,1c0.1,1,0.1,2,0.2,3c0.1,0.6,0.2,1.3,0.6,1.8c0.4,0.7,0.3,1.4,0.2,2.1
	c0,0.7,0.1,1.3,0.3,2c0.3,0.8,0.4,1.6,0.1,2.4c-0.1,0.3-0.1,0.7-0.1,1c-0.1,0.4-0.1,0.7-0.3,1c-0.3,0.5-0.3,1-0.2,1.6
	c0.2,0.7,0.1,1.5-0.1,2.2c-0.1,0.4-0.2,0.8-0.3,1.2c-0.2,0.9-0.5,1.7-1,2.4c-0.6,0.9-1.1,1.9-1.5,2.9c-0.2,0.5-0.1,1.2-0.1,1.7
	c-0.1,1.1,0,2.1,0.4,3.2c0.4,1.1,1,2.1,1.4,3.3c0.2,0.5,0.3,1.1,0.3,1.7c0,1.1,0.4,2,0.8,2.9c0.7,1.5,1.3,3.1,1.1,4.7
	c0,0.3,0.1,0.7,0.2,1c0.2,0.5,0.1,0.9-0.3,1.3c-0.4,0.5-0.9,0.9-1.4,1.4c-0.2,0.2-1,0.2-1.4-0.1c-0.4-0.3-0.2-0.5,0-0.8
	c0.1-0.2,0.3-0.4,0.3-0.6c-0.1-0.7,0.4-1.2,0.9-1.6c0,0,0.1-0.1,0.1-0.1c-0.4-1.5-0.8-3.1-1.1-4.7c-0.4,0.2-0.6,0.6-0.7,1
	c-0.2,0.8-0.5,1.5-0.6,2.4c0,0.4-0.3,1-0.6,1.3c-0.8,0.9-1.1,1.9-1.2,2.9c-0.1,0.7-0.1,1.5-0.4,2.2c-0.1,0.2-0.1,0.4-0.1,0.5
	c0,0.6-0.2,1.2-0.5,1.7c-0.4,0.5-0.3,1,0,1.5c0.5,1,0.8,2.1,1.5,3c0.1,0.1,0.1,0.2,0.1,0.3c-0.8,0.8-1.7,0.7-2.2-0.2
	c-0.4-0.7-0.7-1.4-0.7-2.2c0-0.5-0.2-1.1-0.4-1.6c-0.2-0.6,0-1.2,0.4-1.7c0.3-0.4,0.5-0.9,0.8-1.3c0.5-0.8,0.6-1.6,0.5-2.4
	c-0.1-0.5,0.1-1,0.3-1.5c0.3-0.7,0.4-1.5,0.5-2.2c0.1-0.4,0.2-0.9,0.4-1.3c0.5-1.1,0.6-2.3,0.8-3.5c0.1-0.5-0.1-0.8-0.6-1
	c-0.4-0.2-0.6-0.5-0.6-0.9c0-0.8-0.1-1.5-0.1-2.3c0-1-0.9-1.5-1.7-2.1c-0.1-0.1-0.4-0.1-0.6,0c-0.7,0.4-1.3,0.1-2-0.1
	c-0.6-0.2-0.9-0.7-1.2-1.2c-0.5-0.6-0.5-1.3-0.7-2c-0.1-0.3,0-0.7,0.2-0.9c0.3-0.4,0.2-0.8,0.1-1.2c-0.2-0.5-0.5-1-0.6-1.6
	c-0.2-0.6-0.4-1.3-0.5-1.9c-0.3,0-0.4,0.2-0.5,0.4c-0.2,0.5-0.5,1-0.7,1.5c-0.1,0.3-0.3,0.5-0.4,0.8c-0.2,0.5-0.5,1-0.7,1.6
	c-0.2,0.4-0.4,0.9-0.5,1.4c-0.1,0.4-0.3,0.8-0.9,1c-0.2-0.2-0.5-0.4-0.7-0.6c-0.1-0.1-0.3-0.4-0.3-0.5c0.1-0.7-0.1-1.5,0.4-2.2
	c0.1-0.2,0.2-0.6,0.1-0.8c-0.2-0.8,0-1.4,0.7-1.8c0.1,0,0.1-0.1,0.2-0.2c0,0,0,0,0-0.1c-0.3-0.2-0.6-0.3-0.9-0.5c-0.1,0-0.2,0-0.2,0
	c-0.6,0.8-1.6,1.3-2.5,1.8c-1,0.6-2,1.1-3.1,1.7c-0.4,0.2-0.7,0.5-1.1,0.8c-0.6,0.4-1.2,0.7-1.9,1.1c-0.4,0.2-0.9,0.4-1.3,0.8
	c-0.4,0.4-0.9,0.6-1.4,0.8c-0.4,0.1-0.7,0.3-1,0.6c-0.2,0.1-0.3,0.4-0.3,0.6c-0.1,0.7-0.2,1.4-0.3,2.1c-0.2,0.8-0.4,1.7-0.8,2.4
	c-0.3,0.7-0.8,1.3-1.3,1.9c-0.4,0.5-0.9,0.4-1.5-0.2c0.4-0.7,0.8-1.4,1.2-2.1c0.2-0.3,0.3-0.7,0.5-1.1c0.2-0.6,0.3-1.2,0.5-1.8
	c0-0.1,0-0.3-0.1-0.4c-0.1-0.1-0.3-0.1-0.5,0c-0.5,0.3-0.9,0.6-1,1.2c-0.1,0.7-0.4,1.2-1.2,1.5c-0.6,0.2-1.1,0.5-1.6,0.8
	c-0.5,0.3-0.9,0.6-1.5,1c0,0-0.1,0-0.1,0c-0.2-0.1-0.5-0.2-0.5-0.3c0-0.2,0.1-0.5,0.3-0.6c0.9-0.6,1.7-1.2,2.7-1.6
	c0.6-0.3,1.1-0.6,1.2-1.3c0-0.6,0.6-1,1-1.5c0.2-0.2,0.5-0.3,0.6-0.5c0.2-0.2,0.3-0.4,0.3-0.7c0-0.5,0.2-0.8,0.7-0.9
	c0.3-0.1,0.5-0.3,0.7-0.5c0.7-0.7,1.4-1.4,2.1-2.1c0.5-0.4,1.1-0.7,1.7-0.9c1.7-0.7,3.1-1.7,4.4-2.7c1.1-0.8,2.2-1.6,3.3-2.4
	c0.4-0.2,0.8-0.4,1.2-0.6c1.4-0.6,2.8-1.3,4-2.1c0.6-0.4,1.1-0.9,1.6-1.4c1-1,2.1-2,3.6-2.6c0.7-0.3,1-1,1.3-1.6
	c0.4-0.7,0.9-1.4,1-2.3c0-0.3,0.2-0.6,0.4-0.8c0.2-0.4,0.2-0.5,0-1c-1-0.2-1.9-0.3-2.8-0.5c-0.8-0.2-1.5,0.2-1.8,0.9
	c-0.1,0.4-0.2,0.8-0.5,1.1c-0.2,0.3-0.5,0.5-0.9,0.7c-0.8,0.3-1.4,0.6-1.9,1.2c-0.6,0.7-1.5,0.9-2.5,0.8c-0.8-0.1-1-0.6-0.5-1.2
	c0.5-0.6,1-1.1,1.8-1.3c0.8-0.2,1.4-1.4,1.2-2.2c-0.2-0.8-0.1-1.1,0.7-1.5c0.8-0.4,1.6-0.7,2.5-0.7c1.1,0,2.2-0.1,3.2,0.1
	c0.3,0.1,0.5-0.1,0.7-0.3c0.5-0.8,1.1-1.6,1.6-2.4c0.2-0.4,0.3-0.9,0.5-1.3c0.3-0.9,0.6-1.8,1.5-2.4c0.5-0.3,0.7-0.8,0.4-1.3
	c-0.2-0.3-0.1-0.6,0.2-0.9c0.3-0.4,0.6-0.8,0.8-1.2c0.2-0.3,0.2-0.7-0.2-1c-0.3,0.2-0.6,0.4-1,0.6c-0.9,0.5-1.8,1-2.8,1.5
	c-0.1,0.1-0.2,0.1-0.3,0.2c-1.1,1.2-2.7,1.6-4,2.4c-0.6,0.4-1.3,0.5-2.1,0.5c-1,0-1.9,0.2-2.9,0.3c-0.5,0-1,0-1.5-0.1
	c-0.4,0-0.7-0.2-1.1-0.2c-0.7-0.1-1.4,0.1-1.8,0.6c-0.5,0.6-1.1,1.3-1.6,1.9c-0.2,0.2-0.3,0.4-0.4,0.6c-0.9,1-1.7,2-2.6,3
	c-0.1,0.1-0.1,0.1-0.2,0.2c-0.9,0.4-1.4,1.2-2.1,1.8c-0.6,0.5-0.8,1-0.7,1.7c0.1,0.5,0.1,1,0.1,1.5c0,0.3-0.2,0.6-0.3,0.8
	c-0.3,0.4-0.6,0.7-1,1c-0.4,0.3-0.8,0.7-1.2,1c-0.4,0.3-0.8,0.7-1.3,1c-0.5,0.4-1,0.8-1.5,1.2c-0.4,0.3-0.5,0.5-0.4,0.9
	c0.3,0.9,0.5,1.8,0.8,2.7c0.1,0.5-0.1,0.8-0.5,1.1c-0.3,0.2-0.5,0.4-0.7,0.7c-0.7,0.8-1.3,1.6-2,2.4c-0.3,0.4-0.6,0.7-0.9,1
	c-0.5,0.5-1.1,0.9-1.6,1.4c-0.5,0.4-0.9,0.8-1.4,1.1c-0.7,0.5-1.4,1-2.2,1.4c-1,0.5-2,1.1-2.8,1.8c-0.4,0.3-0.8,0.7-0.9,1.2
	c0,0.1-0.1,0.2-0.2,0.3c-0.7,0.6-1.2,1.4-1.3,2.3c-0.1,0.3-0.5,0.5-0.9,0.4c-0.4-0.1-0.4-0.3-0.4-0.6c0-0.8,0.2-1.5,0.9-2.1
	c0.3-0.3,0.5-0.7,0.5-1.1c0.1-0.8,0.4-1.4,1-2c-0.4-0.3-0.7-0.2-1.1-0.2c-1.1,0.2-2.2,0.4-3.3,0.6c-0.5,0.1-1.1,0.2-1.6,0.3
	c-1.1,0.1-2.2,0.4-3.2,0.8c-0.4,0.2-0.9,0.2-1.4,0.3c-0.3,0.1-0.6,0-0.8-0.3c-0.1-0.3,0.1-0.7,0.5-0.8c0.8-0.2,1.6-0.5,2.5-0.7
	c0.8-0.2,1.6-0.3,2.3-0.5c0.4-0.1,0.7-0.2,1.1-0.3c1.8-0.6,3.6-1.2,5.4-1.8c1.2-0.3,2.3-0.7,3.1-1.5c0.2-0.2,0.5-0.3,0.8-0.5
	c0.6-0.3,1.2-0.6,1.8-0.8c0.3-0.1,0.7-0.2,1-0.4c0.9-0.3,1.4-0.9,1.8-1.5c0.4-0.6,0.8-1.1,1.5-1.4c1.2-0.6,1.5-2,0.6-3
	c-0.1-0.1-0.3-0.3-0.4-0.4c-0.4-0.5-0.5-0.9-0.1-1.5c0.4-0.5,0.7-1.1,1.3-1.5c0.5-0.3,1.1-0.6,1.6-0.9c1.3-0.8,2.3-1.8,2.6-3.2
	c0.2-1.1,0.7-2.1,1-3.2c0-0.1,0.1-0.2,0.1-0.3c0.2-0.7,0.5-1.4,0.7-2.2c-0.6,0.2-1.3,0.3-1.9,0.5c-0.1,0-0.2,0.1-0.2,0.1
	c-0.6,1-1.9,1.4-2.6,2.3c-0.9,1.1-2.1,1.8-3.3,2.5c-0.6,0.3-1.2,0.6-1.8,0.9c-0.3,0.2-0.7,0.4-1,0.6c-0.5,0.4-1.2,0.7-1.8,0.9
	c-0.3,0.1-0.7,0.3-1,0.4c-0.4,0.2-0.7,0.6-0.9,1c-0.6,1.1-0.5,2.3-0.6,3.5c0,0.3,0,0.5,0,0.8c-0.1,0.4-0.5,0.7-0.9,0.6
	c-0.4,0-0.6-0.3-0.5-0.7c0-0.6,0.1-1.2,0.1-1.8c0-0.5-0.1-1-0.1-1.5c0-0.5,0.1-1,0.2-1.4c0.1-0.3,0.3-0.6,0.4-0.8
	c0.2-0.5-0.1-0.8-0.7-0.7c-0.6,0.1-1.3,0.3-1.9,0.5c-0.4,0.1-0.8,0.2-1.1,0.4c-0.9,0.4-1.7,0.1-2.5-0.2c-0.6-0.2-0.7-0.6-0.2-1
	c0.6-0.5,1.3-1,2.2-1.1c0.8-0.1,1.7-0.3,2.5-0.4c0.2,0,0.4,0,0.5,0c0.6,0.2,1.2,0,1.9-0.1c0.4-0.1,0.9-0.2,1.4-0.2
	c0.9,0,1.7-0.1,2.6-0.4c1-0.4,1.9-0.7,2.7-1.3c0.5-0.3,0.8-0.7,1.3-1.1c1-0.7,1.9-1.4,3-2.1c0.5-0.3,1-0.5,1.5-0.7
	c0.4-0.2,0.9-0.5,1.3-0.7c-0.7-0.4-1.3-0.5-2-0.5c-0.1,0.1-0.2,0.3-0.3,0.5c-0.2,0.4-0.5,0.5-1,0.5c-0.5-0.1-0.9,0-1.3,0.3
	c-0.2,0.2-0.6,0.2-0.9,0.3c-0.7,0-1.4,0.1-2.1,0c-0.9-0.2-1.9-0.1-2.8-0.1c-1,0.1-2,0-3.1-0.1c-0.9,0-1.8-0.1-2.6-0.2
	c-1-0.1-2.1-0.2-3.1-0.2c-1,0-2,0.1-3,0.2c-0.5,0.1-1,0.3-1.4,0.4c-0.3,0.1-0.5,0.2-0.8,0.2c-1.1,0-2.1,0.2-3.1,0.5
	c-0.8,0.2-1.6,0.4-2.5,0.6c-0.5,0.1-1,0.2-1.4,0.4c-0.7,0.5-1.6,0.5-2.4,0.8c-0.3,0.1-0.6,0-0.8-0.2c-0.2-0.2-0.3-0.5,0-0.7
	c0.2-0.1,0.4-0.3,0.6-0.3c1.1-0.4,2.1-0.7,3.2-1c1-0.3,2.1-0.5,3.1-0.8c0.1,0,0.3-0.1,0.4-0.2c-0.1-0.1-0.1-0.2-0.2-0.2
	c-1.3-0.3-2.5-0.6-3.8-0.9c-0.4-0.1-0.9-0.1-1.3,0c-1,0.1-1.9,0.3-2.9,0.5c-0.8,0.2-1.5-0.1-2.2-0.3c-0.2,0-0.3-0.3-0.3-0.5
	c0-0.2,0.2-0.4,0.4-0.5c0.2-0.1,0.6-0.1,0.8-0.1c2.2-0.1,4.5-0.3,6.7-0.4c1.1,0,2.2,0,3.3,0.3c1.1,0.3,2.1,0.6,3.2,0.8
	c1.3,0.2,2.6,0.2,3.8-0.6c0.7-0.4,1.4-0.8,2.2-1c0.8-0.2,1.6,0.1,2.3,0.4c0.9,0.4,1.7,0.8,2.6,1.1c0.5,0.2,1,0.2,1.5,0.1
	c1-0.2,1.9,0,2.9,0.2c1,0.2,1.9,0.3,2.8,0.1c-0.2-0.1-0.3-0.2-0.5-0.3c-0.9-0.6-1.7-1.1-2.6-1.7c-0.3-0.2-0.5-0.3-0.8-0.5
	c-0.4-0.3-0.7-0.6-1.1-0.8c-0.4-0.2-0.7-0.5-1.1-0.6c-0.9-0.2-1.7-0.5-2.7-0.4c-0.5,0.1-1.1,0-1.6,0c-1.1,0-2.3,0.1-3.4,0.1
	c-1.6,0-3.2-0.1-4.9,0c-0.8,0-1.6,0.3-2.4,0.3c-0.4,0-0.9,0-1.3,0c-0.5-0.1-0.7-0.3-0.7-0.7c0-0.4,0.2-0.5,0.6-0.6
	c0.5-0.1,1-0.2,1.5-0.3c0.3,0,0.5-0.1,0.7-0.4c0.1-0.1,0.2-0.1,0.4-0.1c0.8-0.1,1.6-0.2,2.4-0.1c0.9,0.2,1.8,0.3,2.7,0.4
	c0.7,0.1,1.3,0,2-0.1c1.8-0.2,3.5-0.6,5.3-0.1c0.5,0.2,1.1,0.2,1.7,0.3c1.5,0.1,2.8,0.5,4.1,1.2c0.4,0.2,0.8,0.2,1.2,0.4
	c0.5,0.3,1.1,0.5,1.6,0.9c0.5,0.4,0.9,0.9,1.3,1.4c0.4,0.4,0.8,0.7,1.4,0.4c0.4-0.1,0.7,0,0.8,0.2c0.5,0.7,1.2,0.6,1.9,0.5
	c0.6-0.1,1.2-0.4,1.5-1c0.3-0.6,0.7-1.1,1-1.7c0.4-0.9,1.3-1.4,2.3-1.9c0.5-0.2,1.1-0.5,1.6-0.7c0.6-0.2,1.3-0.3,1.9-0.1
	c0.4,0.1,0.8,0,1.1,0.2c0.8,0.4,1.7-0.1,2.6,0.2c0.2,0,0.4-0.1,0.6-0.2c1-0.3,2.1-0.6,3.1-1c0.9-0.3,1.7-0.7,2.7-0.9
	c1.3-0.9,3-1.4,4-2.8c0.3-0.5,0.9-0.8,1.3-1.3c-0.8,0.1-1.6,0.3-2.3,0.7c-0.4,0.2-0.9,0.4-1.4,0.6c-0.8,0.3-1.6,0.5-2.3,0.8
	c-0.9,0.3-1.8,0.6-2.8,0.6c-0.5,0-1.1,0.2-1.6,0.4c-0.5,0.2-1,0.3-1.5,0.3c-0.6,0-1.2,0-1.9,0.1c-0.2,0-0.4,0-0.6,0
	c-1.1-0.1-2.2-0.2-3.3-0.3c-0.7,0-1.4,0-2.1,0.1c-2,0.3-4,0.7-6.1,0.7c-1.1,0-2.2,0.2-3.3,0.4c-0.8,0.2-1.6,0.2-2.3-0.4
	c-0.3-0.2-0.6-0.4-1-0.6c-0.1-0.1-0.2-0.2-0.4-0.2c-0.8,0-1.5-0.3-2.2-0.5c-0.5-0.1-1.1-0.3-1.6-0.4c-0.4-0.1-0.8-0.2-1.2-0.3
	c-0.2-0.1-0.5-0.1-0.7-0.2c-0.6-0.3-1.2-0.5-1.9-0.6c-0.9-0.1-1.7-0.5-2.6-0.6c-0.7-0.1-1.4-0.1-2-0.2c-0.7,0-1.4-0.1-2-0.1
	c-1.3,0-2.6,0-3.9,0c-0.1,0-0.1,0-0.2,0c-1.2,0.6-2.4,0.3-3.6,0.2c-0.2,0-0.4-0.1-0.6-0.2c-0.1,0.1-0.2,0.2-0.3,0.3
	c-0.1,0.3-0.4,0.5-0.7,0.7c-0.5,0.3-1,0.7-1.4,1.1c-0.3,0.2-0.5,0.4-0.9,0.4c-0.8,0.1-1.5,0.2-2.3,0.3c-0.2,0-0.5-0.1-0.7-0.1
	c-0.5-0.1-0.9-0.2-1.4-0.3c-0.4-0.1-0.7,0-1.1-0.1c-0.5-0.1-1-0.2-1.6,0.2c-0.1,0.1-0.5,0-0.7-0.1c-0.2-0.3-0.5-0.3-0.8-0.3
	c-1.7,0-3.4,0.4-4.9,1c-0.6,0.2-1.2,0.3-1.8,0.5c-0.3,0.1-0.6,0.2-0.8,0.4c-0.5,0.3-0.7,0.3-1.1-0.1c-0.3-0.3-0.3-0.8,0-1
	c0.2-0.2,0.5-0.3,0.8-0.4c1.3-0.3,2.6-0.7,3.9-1.1c1.3-0.4,2.7-0.7,4.1-0.6c1,0.1,1.9,0,2.9,0c1.4-0.1,2.7-0.4,3.9-1.1
	c0.1-0.1,0.3-0.1,0.5-0.2c-0.4-0.3-0.5-0.5-0.8-0.6c-0.6-0.2-1.2-0.5-1.8-0.6c-0.7-0.1-1.4-0.3-2.1-0.5c-0.7-0.3-1.5-0.3-2.3-0.2
	c-0.7,0.1-1.4-0.1-2-0.3c-0.5-0.2-0.7-0.5-0.5-1c0.1-0.3,0.4-0.5,1-0.4c0.2,0,0.5,0,0.7,0.1c0.4,0.1,0.7,0,1.1-0.2
	c0.9-0.4,1.8-0.2,2.5,0.2c1.4,0.7,2.9,1,4.4,1.5c0.8,0.3,1.6,0.6,2.4,0.8c0.1,0,0.3,0.1,0.4,0.1c0.8,0.1,1.6,0.2,2.5,0.2
	c1.3,0,2.7,0,4,0c0.4,0,0.9-0.1,1.3-0.1c0.4,0,0.8-0.1,1.3-0.1c0.6,0,1.2-0.2,1.8-0.4c0.7-0.2,1.6-0.3,2.4-0.2
	c1.5,0.1,2.9,0.3,4.4,0.7c2.7,0.6,5.3,1.3,8,1.9c1.2,0.3,2.4,0.5,3.7,0.3c0.1,0,0.1,0,0.2,0c1.5,0.3,3-0.1,4.5-0.3
	c1.7-0.2,3.5-0.3,5.2-0.5c0.1,0,0.2,0,0.3,0c2.9,0.4,5.7-0.4,8.6-0.7c0.3,0,0.6-0.1,0.9-0.3c0.3-0.2,0.6-0.4,1.1-0.2
	c0.2,0,0.4-0.1,0.6-0.2c1.3-0.6,2.6-1.3,3.9-2c2-1.1,4.1-2.1,6.1-3.2c0.8-0.4,1.5-1,2.2-1.5c0.3-0.2,0.6-0.5,1-0.7
	c0.7-0.3,1.2-0.8,1.6-1.4c0.4-0.5,0.6-0.5,1.3-0.3c0.7,0.3,1.5,0.1,2.2,0c2.2-0.5,4.4-0.7,6.6-0.6c0.3,0,0.7,0.1,1,0.1
	c0.8,0,1.7,0,2.5,0.1c0.6,0,1.1,0.2,1.7,0.1c1.7-0.1,3.3-0.2,4.9-0.3c1.3-0.1,2.7-0.2,4-0.3c0.4,0,0.8,0.2,1,0.4
	c0.7,0.8,1.4,1.5,2.1,2.3c0.7,0.9,1.4,1.7,2.1,2.6c0.5,0.6,1.2,1.2,1.7,1.8c0.2,0.2,0.4,0.4,0.5,0.7c0.2,0.5,0.6,0.7,1.2,0.7
	c1.1,0,2.1,0.1,3.2,0c2-0.1,4-0.3,6.1-0.4c0.9-0.1,1.5-0.3,1.7-1.3c0.1-0.5,0.1-1,0-1.5c-0.1-0.9,0.1-1.8,0.4-2.7
	c0.2-0.5,0.3-1,0.1-1.5c-0.1-0.2,0-0.6-0.1-0.8c0-0.5,0-1.1,0-1.8c0.2-0.3,0.9-0.4,1.4-0.4c0.9,0.2,1.8-0.1,2.7-0.2
	c0.4,0,0.8-0.1,1.2,0c0.9,0.1,1.9,0,2.8,0c2.7,0,5.5-0.2,8.2-0.5c1.9-0.2,3.9-0.3,5.8-0.4c0.8-0.1,1.5-0.2,2.3-0.3
	c1.6-0.2,3.2-0.3,4.9-0.4c0.3,0,0.6,0,0.9,0.1c1.1,0.1,2-0.2,2.7-0.9c0.5-0.5,1-1,1.5-1.4c0.3-0.3,0.7-0.5,1-0.8
	c0.5-0.4,0.9-0.9,1.4-1.2c0.5-0.3,1.2-0.5,1.8-0.6c0.3-0.1,0.6-0.1,0.9-0.1c0.6-0.1,1.2-0.1,1.8,0c1.1,0.2,2.3,0.2,3.4-0.1
	c1.2-0.3,2.4-0.1,3.6-0.1c1.9,0.1,3.8,0.2,5.7,0c0.2,0,0.5,0,0.7,0c1.7,0,3.4,0,5,0c1,0,2,0,3,0.1c0.9,0.1,1.7,0,2.6,0
	c0.7,0,1.4-0.1,2,0C307.9,46.6,308.3,46.7,308.7,46.8z M187.2,89.2c-0.8,1-1.5,1.8-2.1,2.6c-0.6,0.8-1.2,1.5-2.1,1.9
	c-0.5,0.3-1.1,0.6-1.5,1c-0.6,0.5-1.2,1.1-1.1,1.8c0.1,0.4,0,0.7-0.3,1c-0.5,0.5-0.7,1.1-0.7,1.8c-0.1,0.9,0.2,1.7,0.6,2.4
	c0.4,0.7,0.7,1.5,0.5,2.2c-0.3,0.9,0,1.7,0.4,2.4c0.5,0.9,1,1.1,2.1,0.8c0.4-0.1,0.6-0.3,0.6-0.7c0-0.3,0-0.6,0.1-0.9
	c0.3-0.6,0.5-1.2,0.5-1.8c0-0.1,0.1-0.2,0.1-0.4c0.2-0.5,0.4-1,0.5-1.5c0.2-1.1,0.3-2.2,0.8-3.3c0.7-1.4,1.2-2.8,1.9-4.1
	c0.2-0.5,0.4-0.9,0.3-1.4C187.4,91.9,187.3,90.7,187.2,89.2z M176,97.7c0,0,0.1,0.1,0.1,0.1c1.4-0.3,2.2-0.9,2.3-1.7
	C177.5,96.6,176.8,97.1,176,97.7z M167.1,102.1c-1.1,0.3-1.9,0.9-2.1,1.5C165.8,103.2,166.6,103,167.1,102.1z M187.9,98.6
	c0.6-0.4,0.5-0.9,0.7-1.6C187.8,97.4,187.9,98,187.9,98.6z M186.6,83.4c0-0.4,0.2-0.8-0.2-1.1C185.8,82.8,186.3,83.1,186.6,83.4z
	 M175.1,101.7c0.4-0.2,0.4-0.2,0.5-0.7C174.9,101.1,174.9,101.1,175.1,101.7z M188.6,89.2c0.1,0,0.2,0,0.2,0c0-0.3,0-0.6,0-0.9
	c-0.1,0-0.1,0-0.2,0C188.6,88.6,188.6,88.9,188.6,89.2z M185.2,106.9c0.1-0.2,0.2-0.5-0.2-0.8C184.7,106.5,184.8,106.7,185.2,106.9z
	 M218.4,57.5c0.4-0.1,0.5-0.3,0.3-0.5c0-0.1-0.3-0.1-0.3-0.1C218.2,57,218.2,57.2,218.4,57.5z M226.1,73.4c0.2,0.4,0.2,0.4,0.7,0.3
	C226.5,73.6,226.3,73.5,226.1,73.4z M172.9,97.7c0,0,0,0.1,0.1,0.1c0.1-0.1,0.3-0.1,0.4-0.2c0,0,0-0.1-0.1-0.1
	C173.2,97.5,173,97.6,172.9,97.7z M175.4,68.5c0,0.1,0,0.1,0,0.2c0.2,0,0.3,0,0.5,0c0,0,0-0.1,0-0.1
	C175.7,68.5,175.6,68.5,175.4,68.5z"/>
<g>
	<path class="st0" d="M299.9,6c0,1.6,0,1.6-1.5,1.8c-0.8,0.1-1.7-0.1-2.5-0.1c-1.2-0.1-2.5-0.3-3.7-0.3c-1.8,0-3.7,0-5.5,0.1
		c-3.4,0.2-6.8,0.6-10.2,0.5c-2.7,0-5.4,0.1-8,0.3c-3,0.2-5.9,0.6-8.9,0.7c-1.5,0.1-3,0-4.5-0.1c-3.5-0.4-7-0.3-10.6-0.3
		c-1.8,0-3.6,0.2-5.4,0.2c-0.8,0-1.5,0-2.3,0c-3.1-0.2-6.2-0.1-9.3,0.1C226.3,9,225.1,9,224,9c-1.1,0.1-2.2,0.1-3.4,0.2
		c-3.9,0.5-7.8,0.4-11.6,0.3c-3.1,0-6.2-0.2-9.3-0.1c-1.6,0-3.1,0.3-4.7,0.3c-1.9,0-3.7,0.4-5.6,0.2c-2.3-0.2-4.6-0.3-7-0.3
		c-2.3,0-4.6,0.4-6.9,0.5c-1.3,0.1-2.6,0-3.6-0.9c-0.9-0.8-1.8-1.7-2.5-2.7c-0.6-0.9-0.7-2-0.1-3.1c0.7-1,1.3-2.2,2.6-2.5
		c2.2-0.5,4.4,0.1,5.2,2.5c0.1,0.2,0.2,0.4,0.2,0.6c0.5,1,0.8,1.2,1.9,1.2c1.2,0,2.4,0,3.6,0c0.8,0,1.7,0,2.5,0c1.7,0,3.3,0,5,0
		c0.3,0,0.6,0,1,0.1c1.2,0,2.3,0.1,3.5,0.1c3.7,0,7.4-0.1,11.1-0.2c3.3-0.1,6.7-0.1,10-0.2c0.3,0,0.5,0,0.8,0
		c4.4,0.1,8.9,0.2,13.3,0.2c1.3,0,2.6,0,3.9,0c0.7,0,1.4,0.1,2.2,0.1c1.6,0,3.3,0,4.9-0.3c2.5-0.4,5-0.4,7.5-0.3
		c2.8,0,5.6,0.2,8.4,0.2c3.2,0,6.3-0.2,9.5-0.3c2.1-0.1,4.3-0.1,6.4-0.1c1.9-0.1,3.8-0.1,5.8-0.2c0.9,0,1.9-0.1,2.8-0.1
		c3.8-0.1,7.6-0.2,11.4-0.3c1.9,0,3.8,0,5.8,0c0.9,0,1.2,0.4,1.3,1.3C299.9,5.5,299.9,5.8,299.9,6z"/>
	<path class="st0" d="M298.6,11.4c-1.4,0.3-2.5,1-3.8,0.8c-0.9-0.1-1.9,0.1-2.8,0.2c-1.5,0.1-3,0.2-4.4,0.2c-2,0.1-4.1,0.1-6.1,0.1
		c-2.6,0-5.2,0-7.8,0.1c-1.3,0.1-2.7,0.4-4,0.5c-0.9,0.1-1.9,0.2-2.8,0.3c-1.5,0.1-3,0.4-4.6,0.4c-2.4,0.1-4.9,0-7.3,0
		c-1.8,0-3.6,0-5.4,0c-1.9,0-3.8,0.3-5.7,0.1c-1.4-0.2-2.8,0-4.1,0.1c-1.4,0-2.8,0.1-4.1,0.2c-1.3,0.1-2.7,0.2-4,0.3
		c-1.1,0.1-2.2,0.1-3.3,0.2c-0.3,0-0.6-0.1-1-0.1c-2.3,0-4.6-0.4-6.8,0c-2.7,0.4-5.5,0.3-8.2,0.5c-1.8-0.5-3.6,0.2-5.4-0.1
		c-1.3-0.2-2.8,0-4.1,0.1c-2.5,0.3-4.9,0.3-7.4,0.3c-0.1,0-0.2,0-0.2,0c-1.1-0.5-1.9-0.1-2.7,0.6c-1.2,1-2.5,1.9-3.6,3
		c-1.3,1.3-2.8,2.3-4.3,3.3c-0.9,0.6-1.8,1.4-2.7,2.2c-1,0.9-2,1.8-3.1,2.7c-1.4,1.2-2.9,2.3-4.4,3.4c-0.6,0.5-1.2,0.6-2.1,0.5
		c-2-0.3-4-0.5-6.1-0.5c-1.8,0-3.7,0.3-5.5,0.4c-3,0.3-5.9,0.3-8.9,0.2c-3.3-0.1-6.6-0.2-9.9-0.1c-2.2,0-4.4-0.1-6.6-0.2
		c-0.9-0.1-1.8,0-2.7-0.1c-2-0.1-3.9-0.3-5.9-0.5c-0.4,0-0.8-0.1-1.2-0.1c-1.1-0.1-1.9,0.2-2.8,0.9c-1.6,1.4-3.5,2.5-5,3.9
		c-1.4,1.3-3.1,2-4.6,3.1c-0.2,0.1-0.5,0.2-0.7,0.2c-0.9,0-1.9,0-2.8,0.1c-0.7,0-1.3,0.2-1.9,0.2c-2.1,0-4.2-0.1-6.3-0.1
		c-1.2,0-2.4,0.3-3.6,0.4c-2.6,0.1-5.3,0.2-7.9,0.3c-1.6,0.1-3.1,0.1-4.7,0.1c-1,0-2,0-3,0.1c-1.1,0-2.1,0-3.2,0
		c-1.6,0.1-3.2,0-4.8-0.3c-1.3-0.2-2.3,0.2-3.2,1.2c-1.2,1.4-2.6,2.6-3.9,3.9c-0.7,0.7-1.3,1.4-2,2.2c-0.3,0.4-0.7,0.5-1.3,0.4
		c-1.1-0.1-2.2,0-3.2,0c-0.4,0-0.7,0-1.1,0c-1.7,0.1-3.5,0.2-5.2,0.3c-1.6,0.1-3.3,0.3-4.9,0.3c-3.4,0.1-6.8,0.3-10.2,0.3
		c-2.6,0-5.2,0.2-7.8,0.3c-1.3,0-2.6,0.3-3.9-0.1c-0.2-0.1-0.5,0-0.8,0c-0.8,0.1-1.7,0.2-2.5,0.2c-1.2,0-2.2,0.4-3.1,1.2
		c-1.3,1.1-2.7,2.2-4.1,3.3c-0.9,0.7-1.8,1.4-2.5,2.4c-0.2,0.3-0.5,0.5-0.7,0.6c-1.1,0.5-2.2,0.8-3.2,1.3c-1.8,0.8-3.7,0.8-5.5,1.4
		c-1.8,0.5-4.4-0.6-5-2.5c-0.4-1.6,0.2-3.2,1.9-4.3c2.3-1.5,4.7-1.4,7.1-0.4c1.4,0.6,2.7,1.3,4,2c0.5,0.3,0.9,0.3,1.4-0.1
		c1.3-1.1,2.7-2.1,4-3.2c1-0.8,2-1.6,3-2.4c0.7-0.6,1.4-0.6,2.2-0.6c0.7,0.1,1.4,0,2.2,0c0.3,0,0.5-0.1,0.8,0c1.2,0,2.3,0.1,3.5,0.1
		c1.9-0.1,3.8-0.2,5.8-0.4c0.3,0,0.6-0.1,0.9-0.1c3,0,6,0.1,9,0c3.4-0.1,6.7-0.4,10.1-0.6c2.4-0.1,4.8-0.3,7.3-0.4
		c0.7,0,1.3-0.3,1.8-0.9c0.7-0.8,1.5-1.5,2.2-2.2c0.9-0.9,1.8-1.8,2.6-2.7c0.2-0.2,0.4-0.4,0.5-0.6c0.8-1.1,1.9-1.5,3.2-1.3
		c1.5,0.2,3.1,0.3,4.7,0.3c1.8,0.1,3.6,0.1,5.3,0.1c4-0.1,8.1-0.1,12.1-0.3c1.9-0.1,3.8-0.3,5.8-0.4c1.9-0.1,3.8,0,5.8-0.1
		c1.5-0.1,3-0.2,4.5-0.3c0.1,0,0.2,0,0.3-0.1c1-0.6,2.1-1.2,3-1.9c1.8-1.3,3.4-2.7,5.1-4c0.8-0.7,1.6-1.3,2.5-2
		c0.2-0.2,0.6-0.3,0.9-0.4c0.9,0,1.8-0.1,2.6,0c2.6,0.4,5.2,0.5,7.8,0.7c4.2,0.3,8.5,0.1,12.7,0.2c2.9,0.1,5.8,0.2,8.7,0.2
		c2.2,0,4.4-0.2,6.6-0.3c2.5-0.2,5-0.3,7.5,0c1.1,0.2,2.2,0.1,3.3,0.1c0.2,0,0.4-0.1,0.6-0.2c1-0.7,2.1-1.4,3.1-2.2
		c1.2-1,2.4-2,3.6-3c0.7-0.6,1.4-1.3,2.1-1.8c1-0.8,2.1-1.5,3.2-2.3c0.9-0.7,1.9-1.4,2.6-2.3c0.9-1.1,2.1-1.7,3.2-2.6
		c0.5-0.4,1-0.8,1.4-1.2c0.3-0.2,0.5-0.4,1-0.4c1.6,0.2,3.2,0.3,4.8,0.3c2,0,4-0.2,6-0.3c1,0,2,0,3,0c1.5,0,3,0.1,4.6,0
		c2.4-0.1,4.7,0.1,7-0.4c1.5-0.3,3-0.1,4.6-0.1c2.8,0,5.7-0.1,8.5-0.2c3.1-0.1,6.2-0.3,9.3-0.4c2-0.1,4.1,0,6.1-0.1
		c0.8,0,1.6-0.1,2.4-0.1c1.5,0,3,0,4.5,0c1.9,0,3.8,0.1,5.7,0c1.6,0,3.1-0.3,4.7-0.3c2.4,0,4.7-0.4,7-0.8c1.9-0.3,3.8-0.3,5.6-0.3
		c3.7,0,7.3-0.1,11-0.1c2.4,0,4.8-0.2,7.2-0.3c0.7,0,1.3-0.1,2-0.2C297.7,11,298.1,10.9,298.6,11.4z"/>
	<path class="st0" d="M113.1,46c-0.8-0.1-1.4-0.3-2-0.3c-0.9-0.1-1.7-0.2-2.6-0.3c-1.3-0.1-2.6-0.3-3.9-0.2c-2,0.2-4.1,0.1-6.1,0.1
		c-0.9,0-1.9,0.1-2.8,0.2c-2.2,0.2-4.4,0.2-6.6-0.1c-0.6-0.1-1.2,0.1-1.8,0.1c-1.7,0.1-3.3,0.1-5,0.2c-1,0.1-2,0-3,0.2
		c-0.5,0.1-1,0.5-1.4,0.9c-1.4,1.4-2.6,3-4.1,4.4c-1.1,1-1.9,2.2-2.8,3.3c-0.6,0.8-1,1.7-1.7,2.5c-0.9,1.2-1.9,2.3-2.9,3.5
		C66.2,61,65.9,61,65.6,61c-2.4-0.4-4.8-0.1-7.3,0.1c-2.3,0.2-4.6,0.3-6.8,0.4c-0.8,0-1.5,0.2-2.3,0.5c-2.3,1-4.6,2.1-7,2.9
		c-2.4,0.8-4.6,0.2-6-1.9c-0.7-1-0.6-2-0.3-3.1c0.4-1.5,1.8-3,3.6-3.2c2.1-0.3,4-0.2,6,0.6c1.4,0.6,2.6,1.5,3.8,2.5
		c0.4,0.3,0.7,0.5,1.2,0.5c3.4-0.1,6.8-0.3,10.2-0.7c1.3-0.2,2.6-0.1,3.9,0c0.8,0,1.3-0.1,1.7-0.8c0.4-0.6,1-1,1.4-1.5
		c0.5-0.6,1-1.2,1.4-1.9c1.2-2.2,2.7-4,4.5-5.7c0.8-0.7,1.4-1.6,2.1-2.3c0.8-0.8,1.5-1.7,2.3-2.5c0.2-0.2,0.7-0.2,1-0.2
		c0.9,0,1.8,0,2.7,0c0.4,0,0.8,0,1.2,0c0.6,0,1.2-0.1,1.8-0.1c1.8,0,3.7-0.4,5.5-0.2c1.9,0.2,3.9,0.4,5.9,0c0.6-0.1,1.2,0,1.7,0
		c2.2-0.1,4.5-0.1,6.8-0.2c1.6-0.1,3.2,0.2,4.7,0.4c2.2,0.3,4.3,0.2,6.1-1.4c2-1.7,4.1-3.2,6.1-4.9c0.6-0.5,1.1-0.9,1.6-1.5
		c0.7-0.8,1.6-1.1,2.6-0.9c2,0.5,4,0.3,6,0.1c2.4-0.2,4.8-0.1,7.2,0.2c1.3,0.2,2.6,0.4,3.9,0.2c1.1-0.2,2.3-0.1,3.4-0.1
		c1.5,0,3-0.1,4.6-0.1c0.4,0,0.9,0,1.3,0.1c2.3,0.1,4.6,0.2,6.9,0.3c0.4,0,0.9,0,1.3-0.1c1.5-0.3,3-0.1,4.6,0c1.4,0.1,2.8,0,4.2,0.1
		c1.1,0,2.2,0.1,3.4,0.1c0.5,0,0.9-0.1,1.4-0.3c1.7-0.7,3.1-1.9,4.4-3.1c0.5-0.5,1.1-0.9,1.7-1.2c1.6-0.8,2.9-2.1,4.3-3.2
		c0.2-0.1,0.3-0.3,0.5-0.4c2.3-1.4,4.4-3.2,6.5-4.9c0.9-0.7,1.6-1.7,2.5-2.5c0.5-0.5,1.1-1,1.7-1.4c0.3-0.3,0.7-0.3,1.1,0
		c0.2,0.2,0.5,0.2,0.8,0.3c2.2,0.4,4.3,0.2,6.5,0.1c2.1-0.1,4.3-0.3,6.4-0.4c1.9-0.1,3.8-0.1,5.8-0.1c1.5,0,3-0.1,4.6-0.1
		c2.1-0.1,4.3-0.2,6.4-0.3c0.8,0,1.5,0.1,2.3,0c1.9-0.2,3.8-0.5,5.7-0.5c2.6-0.1,5.2-0.4,7.8-0.2c1,0.1,2.1,0,3.1-0.1
		c2.8-0.1,5.7-0.1,8.5-0.2c1.9-0.1,3.8-0.2,5.7-0.3c1.9,0,3.8,0,5.7,0c1.8,0,3.6,0,5.3,0c2-0.1,3.9-0.2,5.8-0.4
		c1.7-0.2,3.3-0.5,4.9-0.7c1.2-0.1,2.4-0.2,3.6-0.3c4-0.2,8.1-0.3,12.1-0.5c0.7,0,1.4-0.2,2.1-0.3c0.3,0,0.6-0.1,0.7,0.3
		c0.1,0.4-0.2,0.6-0.5,0.7c-0.8,0.1-1.6,0.4-2.5,0.4c-1.8,0.1-3.5,0-5.3,0.1c-1.3,0-2.5,0.1-3.8,0.1c-0.7,0-1.4,0-2.2,0.1
		c-1.5,0.1-3,0.3-4.5,0.5c-3.5,0.5-6.9,1-10.4,1.1c-2.2,0.1-4.4-0.1-6.6-0.1c-2.4,0-4.8,0-7.2,0c-1,0-1.9,0.3-2.9,0.4
		c-0.6,0-1.2-0.1-1.7-0.1c-1.8,0.1-3.6,0.2-5.4,0.3c-1,0.1-2,0.1-2.9,0.1c-2.4,0-4.7,0-7.1,0c-1.8,0-3.7,0.2-5.5,0.3
		c-2.9,0.2-5.9,0.4-8.8,0.4c-1.1,0-2.2,0.2-3.3,0.2c-2.1,0-4.3,0.2-6.4,0.2c-2,0-4,0.1-6.1,0.2c-3,0.2-6,0.6-9,0.2
		c-0.7-0.1-1.5,0-2.3,0c-0.3,0-0.5,0.3-0.7,0.5c-1,0.9-1.9,1.7-2.8,2.7c-0.9,1-2.1,1.9-3.2,2.7c-2.1,1.6-4.2,3.2-6.4,4.7
		c-2.2,1.5-4.3,3.1-6.4,4.7c-0.7,0.5-1.5,1-2.2,1.4c-0.1,0.1-0.3,0.1-0.4,0.1c-1.7-0.1-3.3-0.3-5-0.4c-0.3,0-0.7-0.1-1-0.1
		c-1.5,0-3,0-4.6,0c-0.8,0-1.6,0.1-2.4,0.1c-1.3,0-2.5,0-3.8-0.1c-2.6-0.1-5.3-0.3-7.9-0.4c-1.2,0-2.3,0.1-3.5,0.2
		c-2.4,0.2-4.8,0.3-7.3-0.1c-2.1-0.3-4.2-0.2-6.3-0.1c-1.9,0.1-3.8,0.3-5.6-0.1c-1.2-0.2-2.1,0.1-2.9,1c-1.1,1-2.3,1.9-3.5,2.9
		c-1.4,1.1-2.7,2.2-4.1,3.2C114.9,44.8,114,45.4,113.1,46z"/>
	<path class="st0" d="M296.9,10c-2.2,0.1-4.3,0.2-6.5,0.3c-2.5,0.1-4.9,0.1-7.4,0.2c-1.5,0.1-3,0.2-4.6,0.3
		c-1.2,0.1-2.4,0.1-3.6,0.2c-2.1,0.1-4.2,0.2-6.3,0.3c-2.2,0.1-4.3,0.1-6.5,0.2c-1.1,0-2.1,0.2-3.1,0.2c-2.2,0.1-4.3,0.1-6.5,0.1
		c-0.3,0-0.5,0-0.8,0c-2.1,0.3-4.1,0.2-6.2,0c0,0-0.1,0-0.1,0c-3.4,0-6.7-0.1-10.1-0.1c-1.3,0-2.7,0.1-4,0.1
		c-0.9,0.1-1.8,0.2-2.7,0.3c-1.7,0.2-3.3,0.4-5,0.6c-0.9,0.1-1.8-0.1-2.7-0.1c-3.4,0-6.9-0.1-10.3,0c-2.1,0-4.2,0.2-6.3,0.2
		c-0.9,0-1.8,0-2.7,0c-0.3,0-0.6,0-0.9,0c-1.2,0-2.4,0.1-3.6,0.1c-1.1,0-2.2-0.1-3.3-0.1c-1.5,0-2.8,0.6-3.9,1.6
		c-0.4,0.4-0.9,0.7-1.4,1c-1,0.7-1.9,1.5-2.9,2.3c-0.8,0.6-1.6,1.2-2.4,1.8c-1,0.8-2,1.5-3,2.4c-1.6,1.4-3.2,2.8-4.8,4.1
		c-0.2,0.1-0.3,0.3-0.5,0.4c-0.6,0.3-1.2,0.7-1.5,1.3c-0.3,0.4-0.7,0.6-1.2,0.6c-1.5-0.1-3.1,0-4.6-0.2c-2.3-0.2-4.5-0.1-6.7,0.1
		c-0.4,0-0.7,0.1-1.1,0c-1.6-0.4-3.2-0.2-4.9,0c0,0-0.1,0-0.1,0c-3.1-0.6-6.3,0.1-9.4-0.3c-1.4-0.2-2.9-0.1-4.3-0.1
		c-0.7,0-1.3-0.1-1.9-0.1c-1.8-0.1-3.5-0.3-5.3-0.4c-1.7-0.1-3.3,0-5,0c-1.6,0-3.3-0.1-4.9-0.2c-0.7,0-1.3,0.1-1.8,0.5
		c-1.1,0.8-2.2,1.6-3.3,2.5c-1.7,1.3-3.3,2.7-5,4.1c-0.2,0.2-0.5,0.3-0.5,0.5c-0.3,0.8-0.9,0.9-1.7,0.8c-1.8,0-3.5-0.1-5.3,0
		c-0.9,0-1.9,0.3-2.8,0.3c-1.2,0.1-2.4,0.1-3.6,0.1c-0.5,0-0.9,0.2-1.4,0.2c-1.5,0-3,0-4.5,0.1c-0.9,0-1.7,0.1-2.6,0.1
		c-0.6,0-1.2,0-1.7,0c-1,0-2,0-2.9,0c-0.8,0-1.6,0-2.4,0c-1.8,0.1-3.7,0.2-5.5,0.2c-2,0-4,0-6,0c-2.4,0-4.9,0-7.3,0.1
		c-0.4,0-0.8,0.2-1.1,0.4c-1.7,1.4-3.3,3-4.7,4.6c-0.4,0.5-0.9,0.5-1.5,0.6c-2.7,0-5.4-0.2-8.2,0.3c-0.3,0.1-0.7,0-1,0
		C48,42.1,47,42.1,46,42.3c-0.3,0.1-0.7,0.1-1.1,0.1c-2.3,0-4.6,0-6.8,0c-3.1,0-6.2,0-9.3,0c-1.2,0-2.3-0.2-3.5-0.1
		c-1.8,0.2-3.6,0.1-5.2,1.2c-1.1,0.8-2.3,0.8-3.5,0.5c-0.8-0.2-1.4-0.8-1.7-1.5c-0.3-0.7-0.1-1.5,0.6-2c1.5-1.2,3.1-1,4.8-0.4
		c0.4,0.1,0.7,0.4,1.1,0.5c0.4,0.2,0.9,0.4,1.3,0.4c3.3,0.1,6.6,0.2,9.9,0.3c0.2,0,0.4,0,0.5,0c2.9,0.2,5.9-0.1,8.8,0
		c2.5,0,4.9,0,7.4,0c0.6,0,1.2-0.2,1.7-0.2c1.8-0.1,3.7-0.2,5.5-0.2c0.4,0,0.8-0.1,1.2-0.1c0.6,0,1-0.3,1.4-0.7
		c1.5-1.4,3-2.9,4.5-4.3c0.3-0.3,0.6-0.5,0.9-0.7c0.2-0.1,0.5-0.2,0.6-0.2c0.9,0.5,1.9,0.3,2.8,0.3c1.3,0,2.6,0,3.9,0
		c4.1,0.1,8.3,0.2,12.4,0c0.8,0,1.5-0.1,2.3-0.1c0.9,0,1.8,0.1,2.7,0.1c0.2,0,0.4,0,0.7,0c3.6-0.1,7.1-0.1,10.7-0.2
		c2.3-0.1,4.6-0.5,6.8-0.7c0.8-0.1,1.5,0,2.3,0c0.8,0,1.5,0,2.2-0.5c1.1-1,2.2-1.9,3.4-2.9c1.9-1.5,3.9-3,5.9-4.5
		c0.6-0.5,1.2-0.6,1.9-0.6c3,0.1,6,0.1,9,0.2c2.4,0.1,4.9,0.3,7.3,0.4c2.7,0.1,5.3,0.2,8,0.2c1.6,0,3.1,0,4.7,0c0.1,0,0.1,0,0.2,0
		c2.4,0.5,4.8,0,7.2,0.3c1,0.1,2,0,3-0.1c1.8-0.2,3.5,0,5.2,0.1c1.4,0.1,2.7,0,4-0.1c0.3,0,0.6-0.3,0.9-0.5c0.6-0.4,1.1-0.9,1.7-1.3
		c0.5-0.4,0.9-0.7,1.4-1.1c1.8-1.5,3.5-2.9,5.3-4.4c0.5-0.4,1-0.7,1.5-1.1c1.3-1,2.7-2.2,4-3.2c1.6-1.2,3.3-2.3,4.9-3.4
		c0.2-0.1,0.5-0.2,0.8-0.2c1.7,0,3.5,0,5.2,0.1c2.4,0.1,4.8-0.2,7.2-0.3c0.6,0,1.2,0,1.7,0c0.5,0,0.9,0,1.4,0c1.2,0,2.5,0,3.7,0
		c2.7,0,5.4,0,8-0.1c0.4,0,0.8-0.1,1.2,0c2.5,0.4,5-0.1,7.5-0.3c4-0.5,8-0.6,12.1-0.6c0.8,0,1.7,0.2,2.5,0.2c3.2,0,6.5-0.1,9.7-0.1
		c1.3,0,2.7,0.1,4,0c2.8-0.3,5.6-0.3,8.4-0.4c3-0.1,6-0.4,9-0.5c1.8-0.1,3.7-0.1,5.6-0.2c1.2-0.1,2.4-0.2,3.6-0.2c1.6,0,3.2,0,4.8,0
		c2.5-0.1,5.1-0.1,7.6-0.2c1.3,0,2.5,0,3.8,0c0.3,0,0.9-0.1,0.9,0.4c0,0.6-0.5,0.5-0.9,0.5C298.4,10,297.6,10,296.9,10
		C296.9,10,296.9,10,296.9,10z"/>
	<path class="st0" d="M111.6,42.6c-1-0.1-1.7-0.3-2.4-0.3c-2.5,0-5-0.1-7.5,0c-2.2,0.1-4.4,0.1-6.6,0.1c-1.5,0-3.1-0.1-4.6-0.1
		c-1.2,0-2.3,0.1-3.5,0.2c-1.6,0.1-3.3,0.1-4.9,0.2c-0.2,0-0.4-0.1-0.6-0.1c-0.8-0.1-1.6-0.1-2.5,0.2c-0.5,0.2-1.1,0.2-1.7,0.2
		c-0.7,0.1-1.4,0.2-1.9,0.7c-1.2,1.1-2.4,2.2-3.6,3.4c-0.8,0.8-1.7,1.5-2.5,2.3c-1,0.9-1.9,1.8-2.4,3c-0.8,1.5-1.9,2.7-3.8,2.9
		c-0.8,0.1-1.5,0.6-2.2,0.9c-1.7,0.7-3.5,0.9-5.3,0.6c-0.9-0.2-1.9-0.6-2.7-1c-0.3-0.2-0.7-0.6-0.8-1c-0.7-2.1,0.1-3.9,2.1-4.6
		c2.2-0.8,4.4-1.1,6.6-0.3c1.2,0.5,2.4,1.2,3.6,1.8c0.2,0.1,0.3,0.2,0.5,0.3c0.4-0.4,0.8-0.7,1.2-1.1c2.4-2.6,5-4.9,7.7-7.3
		c0.4-0.3,0.8-0.6,1.1-1c0.4-0.6,1-0.7,1.7-0.7c0.5,0,1,0,1.4-0.1c1.7-0.6,3.5-0.2,5.2-0.3c1-0.1,2,0.1,3,0
		c3.9-0.3,7.8-0.1,11.8-0.1c1.4,0,2.8,0,4.2-0.1c2.3,0,4.6,0,7-0.1c1.2-0.1,2.4-0.2,3.6-0.8c2.4-1.2,4.5-2.9,6.7-4.5
		c1.3-0.9,2.5-1.9,3.8-2.8c0.3-0.2,0.7-0.3,1.1-0.3c2.2,0,4.3,0,6.5,0.3c1.2,0.2,2.4,0,3.6-0.1c3.6-0.2,7.2,0,10.8,0
		c1.8,0,3.6,0.1,5.4,0.2c0.5,0,1.1,0.1,1.6,0.1c3.4,0.3,6.7,0.4,10.1,0.2c0.4,0,0.7,0,1.1,0c0.8,0,1.7-0.1,2.5-0.1
		c0.1,0,0.3,0,0.4-0.1c2-0.1,4.1-0.2,6.1-0.2c1,0,1.7-0.3,2.5-0.9c0.7-0.7,1.5-1.2,2.3-1.8c1.8-1.3,3.7-2.5,5.4-4
		c1.2-1,2.6-1.8,3.7-2.9c1.5-1.5,3.3-2.9,4.9-4.3c1-0.8,2-1.5,3-2.3c0.4-0.3,0.7-0.5,1.1-0.1c0.1,0.1,0.3,0.2,0.5,0.2
		c1.2,0,2.4,0.1,3.6,0.1c1.3,0.1,2.7,0.2,4,0.2c1.1,0,2.2,0,3.4,0c2,0,4.1,0,6.1,0c2.8-0.1,5.6-0.1,8.4-0.3c2.1-0.1,4.1-0.5,6.2-0.7
		c1.7-0.1,3.3-0.2,5-0.2c1.1,0,2.2-0.1,3.4-0.2c2.7-0.2,5.4-0.2,8,0.1c1,0.1,2,0.1,2.9,0c1.7-0.1,3.5-0.2,5.2-0.3
		c1.3-0.1,2.6-0.2,3.9-0.3c2.3-0.1,4.6-0.1,6.8-0.4c1.9-0.3,3.8-0.2,5.7-0.4c0.2,0,0.4,0,0.5,0c2.3,0,4.6,0.1,7,0
		c1.8,0,3.7-0.1,5.5-0.2c0.6,0,1.2-0.2,1.8-0.3c1.8-0.1,3.7-0.2,5.5-0.3c1.8-0.1,3.5-0.2,5.3-0.3c1.6-0.1,3.2,0,4.8,0
		c0.4,0,0.8,0.1,0.7,0.6c0,0.5-0.4,0.5-0.8,0.5c-1.9,0-3.8,0.1-5.7,0c-1.9-0.1-3.7,0.2-5.6,0.4c-1.3,0.1-2.5,0.1-3.8,0.2
		c-1.7,0.1-3.4,0.4-5.1,0.5c-1.6,0.1-3.2,0.1-4.8,0.1c-2.7,0-5.4,0-8,0c-0.4,0-0.9,0.2-1.3,0.2c-2.3,0.2-4.6,0.3-6.9,0.5
		c-1.3,0.1-2.7,0.2-4,0.3c-3,0.1-5.9,0.3-8.9,0.3c-1.2,0-2.4-0.2-3.6-0.2c-2.5,0-5,0.1-7.5,0.3c-1.2,0.1-2.4,0-3.6,0.1
		c-1.2,0-2.4,0.1-3.6,0.3c-1.6,0.2-3.2,0.4-4.9,0.5c-2.1,0.1-4.2,0.2-6.3,0.3c-1.3,0.1-2.6,0.1-3.9,0.2c-0.1,0-0.3,0-0.4,0
		c-1.6-0.1-3.1-0.1-4.7-0.2c-0.5,0-1.1,0-1.6,0c-1,0-2.1,0-3.1-0.1c-2.2-0.2-4.5-0.2-6.7-0.1c-0.2,0-0.5,0.1-0.7,0.2
		c-0.7,0.5-1.4,1-2.1,1.5c-0.8,0.6-1.5,1.3-2.2,1.9c-1.2,1.1-2.4,2.2-3.6,3.3c-0.1,0.1-0.2,0.1-0.3,0.2c-1.8,1.3-3.6,2.6-5.4,3.9
		c-2,1.5-4,3-5.9,4.6c-0.6,0.4-1.1,0.7-1.8,0.5c-1.2-0.2-2.5-0.1-3.7,0c-0.7,0-1.4-0.1-2.2,0c-0.4,0-0.9,0.1-1.3,0.1
		c-0.4,0-0.8,0.2-1.2,0.1c-1.6-0.4-3.1,0-4.7,0c-2.3-0.1-4.6-0.1-7-0.2c-3.4-0.2-6.7-0.5-10.1-0.3c-1.5,0.1-3-0.2-4.4-0.2
		c-1.6,0-3.3,0.2-4.9,0.2c-1.3,0-2.7,0-4-0.1c-1.7,0-3.3-0.1-5-0.1c-0.4,0-0.8,0.3-1.2,0.5c-1.6,1.2-3.2,2.4-4.8,3.5
		c-2.1,1.4-4.2,2.8-6.4,4.2C111.8,42.4,111.6,42.5,111.6,42.6z"/>
	<path class="st0" d="M162.5,39.7c3.7-0.4,7.3,0,10.9-0.8c0,0,0.1,0,0.1,0c2.2,0.2,3.7-1.2,5.3-2.4c2.1-1.6,4.2-3.2,6.3-4.9
		c0.8-0.7,1.6-1.5,2.4-2.2c1.5-1.2,3-2.3,4.5-3.5c1.2-0.9,2.4-1.8,3.6-2.8c0.4-0.3,0.7-0.4,1.2-0.4c2.9,0,5.7,0,8.6-0.3
		c2-0.2,4.1-0.1,6.1-0.2c3.4-0.1,6.8-0.1,10.1-0.2c2.9-0.1,5.8-0.4,8.7-0.4c1.3,0,2.5-0.2,3.8-0.3c3.5-0.3,6.9-0.5,10.4-0.7
		c0.5,0,1-0.1,1.5-0.2c0.4-0.1,0.9-0.2,1.3-0.2c2.6,0,5.3,0.1,7.9-0.1c1.7-0.1,3.5,0,5.2,0.1c2,0.1,4-0.3,6-0.5
		c1.8-0.2,3.7-0.2,5.5-0.3c0.3,0,0.6,0,0.9,0c3.1-0.2,6.2-0.3,9.3-0.5c0.9-0.1,1.8-0.2,2.7-0.3c1.9-0.1,3.8-0.2,5.8-0.3
		c0.5,0,1-0.1,1.5-0.2c2.5-0.4,4.9,0.1,7.4,0c0.1,0,0.3,0,0.4,0c0.1,0.1,0.3,0.2,0.3,0.4c0,0.1-0.1,0.3-0.3,0.4
		c-0.1,0.1-0.3,0.1-0.5,0.1c-1.6,0-3.1-0.1-4.7-0.1c-0.8,0-1.5,0-2.3,0.1c-1.3,0.1-2.7,0.3-4,0.4c-2.2,0.2-4.4,0.3-6.6,0.4
		c-3.3,0.2-6.5,0.4-9.8,0.6c-1.8,0.1-3.6,0.1-5.3,0.3c-1.4,0.1-2.7,0.3-4.1,0.4c-1.2,0.1-2.4,0.1-3.6,0.1c-1.2,0-2.3-0.1-3.5-0.1
		c-0.5,0-1,0.1-1.5,0.1c-0.5,0-1.1,0.2-1.6,0.1c-2.7-0.3-5.4,0.1-8.1,0.3c-1,0.1-2,0-2.9,0c-0.3,0-0.7,0-1,0.1
		c-1.8,0.2-3.7,0.3-5.5,0.5c-0.8,0.1-1.6,0.3-2.4,0.4c-1.1,0.1-2.3,0-3.4,0.1c-2.4,0.2-4.8,0.1-7.2,0.4c-1.8,0.2-3.6,0.4-5.4,0.1
		c-1-0.1-2.1,0-3.1,0c-2.3,0.1-4.6,0.1-6.9,0.2c-1.9,0.1-3.8,0.2-5.6,0.3c-1.1,0.1-2.1,0.1-3.2,0.1c-0.7,0-1.3,0.2-1.8,0.6
		c-1.4,1.1-2.8,2.1-4.2,3.2c-1.6,1.3-3.2,2.5-4.7,3.8c-2,1.6-3.9,3.3-5.9,4.8c-1.1,0.9-2.4,1.6-3.6,2.5c-0.6,0.4-1.1,1.1-1.7,1.3
		c-0.6,0.2-1.3-0.2-2-0.1c-1.1,0.1-2.2,0.3-3.4,0.4c-1.2,0.1-2.5,0.1-3.7,0.2c-2.1,0.1-4.2,0.2-6.3,0.2c-0.4,0-0.9,0-1.3-0.1
		c-0.8,0-1.5,0-2.3,0c-0.3,0-0.5,0.1-0.8,0c-0.7-0.3-1.5-0.2-2.2-0.1c-0.6,0.1-1.2,0-1.7,0c-2.7-0.1-5.4-0.1-8.1-0.2
		c-1.5,0-2.9-0.2-4.4-0.2c-1-0.1-2,0-3-0.1c-1.9-0.2-3.8-0.4-5.7-0.6c-1.4-0.1-2.8-0.1-4.2-0.1c-0.7,0-1.2,0.3-1.7,0.7
		c-0.8,0.7-1.6,1.4-2.4,2c-2.2,1.7-4.4,3.3-6.6,5c-0.9,0.7-1.7,1.4-2.6,2.1c-0.3,0.2-0.7,0.4-1,0.3c-1.3-0.3-2.6-0.1-3.9,0
		c-1.1,0.1-2.2,0.3-3.2,0.4c-2,0.2-4,0.4-6.1,0.5c-2.8,0.1-5.5,0-8.3,0c-0.7,0-1.4-0.1-2.1,0c-0.8,0.1-1.6,0.3-2.4,0.5
		c-0.7,0.2-1.3,0.3-2,0.6c-0.5,0.2-0.9,0.4-1.4,0.6c-1.7,0.8-3.3,1.2-5.1,0.4c-0.9-0.4-1.2-1-1.1-1.9c0.2-2.3,1.2-3,3.6-3.2
		c1.9-0.2,3.6,0.5,5.4,1.1c1.5,0.5,3,1,4.6,1c2.4,0,4.8,0.1,7.2,0.1c1.8,0,3.6-0.3,5.4-0.4c0.1,0,0.2,0,0.3,0
		c2.2-0.2,4.5-0.5,6.7-0.7c0.2,0,0.4-0.1,0.7,0c1.2,0.2,2.2-0.3,3.1-1c1.4-1.1,2.9-2.2,4.4-3.3c1.5-1.2,3.1-2.3,4.6-3.5
		c0.4-0.3,0.9-0.7,1.2-1.1c0.5-1,1.5-1.1,2.4-1.1c0.9,0,1.9,0,2.8,0.1c2.5,0.2,5,0.5,7.5,0.7c1.5,0.1,3,0.2,4.6,0.3
		c3.9,0.1,7.9,0.3,11.8,0.4c1.5,0,3,0,4.5-0.1c0.1,0,0.2,0,0.3,0C159.4,39.6,161,39.7,162.5,39.7z"/>
	<path class="st0" d="M299.7,12.2c-0.4-0.3-0.6-0.5-0.8-0.8C299.7,11.2,299.7,11.2,299.7,12.2z"/>
</g>
<g>
	<path class="st0" d="M323.3,10.4c-0.4,2-1.2,3.6-1,5.6c0.1,1.3-0.1,2.7-0.2,4.1c-0.1,2.1-0.2,4.3-0.3,6.4c-0.1,2.9-0.1,5.9-0.1,8.8
		c0,3.8,0,7.6-0.1,11.3c-0.1,1.9-0.4,3.8-0.7,5.8c-0.2,1.4-0.3,2.7-0.4,4.1c-0.2,2.2-0.4,4.4-0.5,6.6c-0.1,3.5,0,7,0,10.5
		c0,2.6,0,5.2,0,7.9c0,2.8-0.4,5.5-0.1,8.3c0.2,2,0,4-0.1,6c-0.1,2-0.1,4-0.2,6c-0.1,1.9-0.2,3.9-0.3,5.8c-0.1,1.6-0.2,3.1-0.2,4.7
		c0,0.5,0.1,0.9,0.1,1.4c0.1,3.3,0.5,6.7,0.1,9.9c-0.5,4-0.4,7.9-0.7,11.9c0.6,2.6-0.2,5.2,0.2,7.8c0.3,1.9,0,4-0.2,6
		c-0.3,3.5-0.3,7.1-0.4,10.6c0,0.1,0,0.2,0,0.3c0.6,1.6,0.1,2.8-0.8,4c-1.2,1.7-2.3,3.6-3.6,5.2c-1.5,1.9-2.8,4-4.1,6.2
		c-0.8,1.4-1.8,2.6-2.7,3.9c-1.1,1.5-2.3,3-3.3,4.5c-1.4,2.1-2.8,4.2-4.2,6.3c-0.6,0.9-0.8,1.8-0.6,3c0.3,2.9,0.6,5.8,0.6,8.8
		c0,2.7-0.3,5.3-0.5,8c-0.3,4.3-0.3,8.6-0.2,12.9c0.1,4.8,0.2,9.6,0.2,14.3c-0.1,3.2,0.1,6.4,0.3,9.6c0.1,1.3,0,2.6,0.1,3.9
		c0.2,2.8,0.4,5.6,0.6,8.5c0,0.6,0.1,1.1,0.1,1.7c0.1,1.5-0.2,2.8-1.1,4c-1.7,2.3-3.1,5-4.8,7.3c-1.5,2-2.4,4.5-3.8,6.6
		c-0.2,0.3-0.3,0.7-0.3,1c-0.1,1.4,0,2.7-0.1,4.1c0,0.9-0.2,1.9-0.2,2.8c0,3,0.2,6.1,0.1,9.1c0,1.7-0.3,3.4-0.4,5.2
		c-0.2,3.8-0.3,7.6-0.4,11.5c-0.1,2.3-0.1,4.5-0.2,6.8c0,1.5-0.1,2.9-0.1,4.4c0,1.5,0,3,0,4.6c-0.1,2.3,0,4.6,0.3,6.9
		c0.2,1.9-0.2,3.3-1.5,4.6c-1.7,1.8-3.2,3.8-4.8,5.6c-0.9,1-1.7,1.9-2.6,2.9c-0.5,0.5-0.6,1.1-0.5,1.8c0.1,1.6,0,3.1,0,4.7
		c0,0.5,0,1,0,1.6c-0.1,2.5-0.3,5-0.4,7.5c-0.1,2.4-0.3,4.7-0.4,7.1c-0.2,4.9-0.4,9.9-0.3,14.8c0,3.8-0.3,7.6-0.3,11.3
		c0,1.8-0.4,3.8,0.2,5.6c0.1,0.3,0,0.7,0,1.1c-0.1,1.2-0.3,2.4-0.2,3.6c0,1.7-0.5,3.2-1.4,4.5c-1.3,1.9-2.7,3.9-4,5.9
		c-0.9,1.3-1.7,2.7-3,3.6c-0.3,0.2-0.6,0.7-0.7,1.1c-0.6,1.5-1,3.1-1.6,4.6c-0.9,2.5-1,5.3-1.7,7.9c-0.6,2.6,0.8,6.4,3.1,7.2
		c2,0.6,3.9-0.4,5.2-2.7c1.8-3.3,1.7-6.7,0.5-10.2c-0.7-2-1.5-3.9-2.4-5.8c-0.3-0.8-0.4-1.3,0.1-2c1.3-1.9,2.6-3.9,3.9-5.8
		c1-1.4,1.9-2.9,2.9-4.3c0.7-1,0.8-2,0.7-3.2c-0.1-1,0-2.1,0-3.1c0-0.4,0.1-0.7,0.1-1.1c0-1.7-0.2-3.3-0.1-5
		c0.1-2.8,0.3-5.5,0.4-8.3c0-0.4,0.1-0.8,0.1-1.2c0-4.4-0.1-8.7,0-13.1c0.1-4.9,0.5-9.7,0.7-14.6c0.2-3.5,0.4-7,0.5-10.5
		c0-1.1,0.4-1.9,1-2.6c1-1,1.8-2.2,2.7-3.2c1.1-1.3,2.2-2.5,3.4-3.8c0.2-0.3,0.5-0.5,0.7-0.7c1.3-1.2,1.8-2.7,1.6-4.7
		c-0.2-2.2-0.3-4.5-0.4-6.7c-0.1-2.6-0.1-5.1-0.1-7.7c0.1-5.8,0.2-11.7,0.3-17.5c0.1-2.8,0.4-5.5,0.5-8.3c0.1-2.8,0-5.5,0.1-8.3
		c0.1-2.2,0.3-4.4,0.4-6.6c0-0.2,0-0.3,0.1-0.5c0.8-1.5,1.4-3,2.3-4.4c1.6-2.5,3.3-5,4.9-7.4c0.8-1.2,1.6-2.3,2.4-3.6
		c0.2-0.4,0.4-0.8,0.4-1.3c0-1.3,0.1-2.5-0.1-3.8c-0.5-3.7-0.6-7.5-0.8-11.3c-0.4-6.1-0.1-12.3-0.2-18.4c-0.1-4.2-0.3-8.4-0.3-12.6
		c0-3.2,0.3-6.4,0.4-9.6c0.2-3.6,0.4-7.2,0-10.8c-0.2-1.5-0.1-3.1-0.1-4.7c0-0.3,0.1-0.6,0.2-0.9c0.9-1.5,1.7-3,2.7-4.5
		c1.2-1.8,2.4-3.5,3.7-5.2c0.7-1,1.6-2,2.3-3.1c1-1.5,1.8-3.1,2.8-4.6c0.9-1.3,1.7-2.7,2.8-3.8c1.3-1.3,2.1-3.1,3.2-4.6
		c0.5-0.7,1-1.4,1.4-2.1c0.3-0.4,0.5-0.8,0.5-1.4c-0.2-2.3-0.4-4.6-0.4-6.9c0-2.9,0.3-5.8,0.4-8.6c0.1-1.5,0-2.9,0-4.4
		c0-2.2-0.1-4.4,0-6.6c0.1-3.4-0.1-6.8,0.4-10.2c0.3-2.2,0.2-4.4,0.2-6.6c0-4.1,0.1-8.2,0.2-12.3c0.1-4.5,0.4-9,0.5-13.5
		c0.1-2.9,0-5.9,0.1-8.8c0-1.2,0.2-2.3,0.2-3.5c0-2.1,0-4.3,0-6.4c0-2.7-0.1-5.5,0-8.2c0-2.3,0.3-4.5,0.4-6.8c0-3.4,0.4-6.8,1-10.1
		c0.4-2.7,0.4-5.4,0.4-8.2c0.1-5.3,0.1-10.6,0.1-15.9c0.1-3.5,0.2-6.9,0.3-10.4c0-0.9,0.1-1.9,0.2-2.8
		C323.8,11.7,324,11.1,323.3,10.4z"/>
	<path class="st0" d="M281.1,278.4c0.2,1.2,0.3,2,0.4,2.9c0.1,1.2,0.3,2.5,0.3,3.7c0.1,1.9,0.4,3.7,0.3,5.6
		c-0.2,2.9-0.1,5.9-0.2,8.8c0,1.4-0.1,2.7-0.2,4.1c-0.3,3.2-0.2,6.4,0.1,9.6c0.1,0.9-0.1,1.8-0.1,2.7c-0.1,2.4-0.2,4.8-0.3,7.2
		c-0.1,1.5-0.1,3-0.3,4.4c-0.1,0.7-0.6,1.5-1.1,2c-1.8,2-3.7,3.8-5.4,5.9c-1.2,1.5-2.6,2.8-4.1,4c-1,0.8-2.1,1.5-3.1,2.4
		c-1.5,1.3-2.9,2.8-4.3,4.2c-0.4,0.4-0.4,0.8-0.3,1.3c0.4,3.5,0.1,7-0.2,10.5c-0.3,3.3-0.4,6.6-0.5,9.9c0,1.2-0.2,2.2-0.6,3.3
		c-1.3,3.3-2.6,6.7-3.6,10.2c-1,3.5-0.3,6.6,2.3,8.7c1.2,1,2.5,0.9,3.8,0.4c1.8-0.7,3.6-2.6,3.9-5.2c0.3-3,0.2-5.8-0.8-8.7
		c-0.7-2.1-1.9-3.8-3.1-5.4c-0.4-0.6-0.6-1-0.6-1.8c0.1-4.9,0.3-9.8,0.9-14.7c0.2-1.9,0.1-3.8,0-5.7c0-1.1,0.2-1.9,1-2.5
		c0.7-0.5,1.2-1.4,1.8-2c0.7-0.7,1.5-1.5,2.4-2c2.6-1.7,4.9-3.9,7-6.4c0.9-1.1,1.9-2,2.9-3.1c1-1.1,2.1-2.1,3-3.3
		c0.3-0.3,0.3-1,0.3-1.5c0-1.3,0-2.6,0-3.9c0-0.6,0-1.2,0-1.7c0-0.9,0.1-1.8,0.1-2.6c0-2.7,0.5-5.3,0.3-8c-0.2-2.8-0.5-5.6,0.1-8.5
		c0.1-0.8,0-1.7,0-2.5c0.1-3.3,0.1-6.5,0.3-9.8c0.1-2.3-0.2-4.6-0.5-6.8c-0.4-3.2-0.2-6.2,1.8-8.8c2.1-2.8,4-5.9,5.9-8.9
		c0.6-0.8,1.1-1.6,1.8-2.4c1-1.1,1.4-2.3,1-3.8c-0.6-2.9-0.3-5.8-0.2-8.6c0.2-3.5,0.1-6.9-0.3-10.4c-0.2-1.8-0.5-3.7-0.2-5.6
		c0.2-1.6,0.1-3.3,0.1-5c0-2.2,0.1-4.4,0.2-6.6c0-0.6,0-1.3-0.1-1.9c-0.1-3.3-0.3-6.7-0.4-10c0-0.6,0-1.3,0.1-1.9
		c0.4-2.2,0.1-4.4,0-6.6c-0.1-2,0-4.1-0.1-6.1c0-1.6-0.2-3.2-0.2-4.9c0-0.7,0.1-1.4,0.3-2c0.8-2.5,2.3-4.4,3.7-6.4
		c0.5-0.7,1.1-1.5,1.5-2.4c1-2.3,2.5-4.2,3.9-6.2c0.2-0.2,0.3-0.5,0.5-0.8c1.7-3.4,3.9-6.3,6-9.4c0.9-1.3,2-2.4,3-3.6
		c0.6-0.8,1.2-1.6,1.7-2.4c0.3-0.5,0.4-1,0-1.6c-0.2-0.3-0.3-0.8-0.3-1.2c-0.5-3.1-0.3-6.3-0.1-9.4c0.2-3.1,0.3-6.2,0.4-9.3
		c0.1-2.8,0.1-5.6,0.1-8.3c0-2.2,0.1-4.4,0.2-6.6c0.1-3.1,0.2-6.2,0.3-9.3c0-1.1-0.1-2.2,0-3.3c0.2-2.8,0.6-5.5,0.7-8.3
		c0.1-3.8,0.5-7.5,0.2-11.3c-0.1-1.5,0-3,0.1-4.5c0.1-4.1,0.2-8.2,0.3-12.3c0.1-2.7,0.3-5.4,0.3-8.2c0.1-2.7,0-5.4,0-8.2
		c0-2.6,0-5.1,0-7.7c0.1-2.8,0.3-5.6,0.5-8.4c0.2-2.4,0.6-4.7,0.9-7.1c0.2-1.7,0.3-3.4,0.3-5.2c0.2-5.8,0.4-11.6,0.6-17.5
		c0-1,0.2-2,0.3-3c0-0.4,0.1-0.9-0.4-1c-0.5-0.1-0.8,0.2-0.8,0.8c-0.2,1.2-0.4,2.4-0.5,3.6c-0.1,2.5-0.1,5.1-0.1,7.7
		c0,1.8-0.1,3.7-0.1,5.5c0,1,0,2.1-0.1,3.1c-0.2,2.2-0.3,4.4-0.6,6.6c-0.6,5-1.2,10-1.3,15c-0.1,3.2,0.1,6.4,0.1,9.6
		c0,3.5,0,6.9,0,10.4c0,1.4-0.3,2.8-0.4,4.2c-0.1,0.8,0.1,1.7,0.1,2.5c-0.1,2.6-0.3,5.2-0.4,7.8c-0.1,1.4-0.1,2.8-0.1,4.2
		c0,3.4,0,6.8-0.1,10.2c-0.1,2.7-0.2,5.3-0.4,8c-0.3,4.2-0.4,8.5-0.5,12.7c0,1.6-0.2,3.1-0.2,4.7c0,3.1-0.2,6.2-0.2,9.3
		c0,2.9-0.1,5.8-0.2,8.7c-0.2,4.3-0.8,8.7-0.3,13c0.1,1.1,0.1,2.2,0,3.3c0,0.4-0.3,0.7-0.6,1c-1.1,1.4-2.1,2.8-3.3,4.1
		c-1.3,1.4-2.3,3.1-3.3,4.7c-2,3-3.9,6.1-5.8,9.2c-1.8,3.2-3.8,6.2-5.8,9.2c-0.7,1-1.2,2.1-1.7,3.2c-0.1,0.2-0.1,0.4-0.1,0.6
		c0.2,2.4,0.3,4.8,0.5,7.2c0,0.5,0.1,0.9,0.1,1.4c0,2.2,0,4.4,0,6.6c0,1.2-0.1,2.3-0.1,3.5c0,1.8,0,3.7,0.1,5.5
		c0.1,3.8,0.3,7.6,0.4,11.5c0,1.7-0.1,3.3-0.2,5c-0.2,3.5-0.3,7,0.2,10.5c0.4,3,0.3,6,0.1,9.1c-0.2,2.7-0.4,5.4,0.1,8.2
		c0.3,1.7-0.2,3-1.2,4.2c-1.3,1.6-2.4,3.4-3.5,5.1c-1.3,2-2.7,3.9-3.9,5.9C282.5,275.8,281.8,277.2,281.1,278.4z"/>
	<path class="st0" d="M325.1,12.8c-0.1,3.1-0.2,6.3-0.3,9.4c-0.1,3.6-0.1,7.1-0.2,10.7c-0.1,2.2-0.3,4.4-0.4,6.6
		c-0.1,1.7-0.1,3.5-0.2,5.2c-0.1,3-0.2,6.1-0.3,9.1c-0.1,3.1-0.1,6.3-0.2,9.4c0,1.5-0.3,3-0.3,4.5c-0.1,3.1-0.1,6.3-0.1,9.4
		c0,0.4,0,0.7,0,1.1c-0.4,3-0.3,6,0,8.9c0,0.1,0,0.1,0,0.2c0,4.9,0.1,9.7,0.1,14.6c0,1.9-0.1,3.9-0.2,5.8c-0.1,1.3-0.3,2.6-0.4,3.9
		c-0.2,2.4-0.5,4.8-0.7,7.2c-0.1,1.3,0.2,2.6,0.2,3.9c0,5,0.1,10,0.1,14.9c0,3-0.2,6.1-0.3,9.1c0,1.3,0,2.6,0,3.9c0,0.4,0,0.8,0,1.3
		c-0.1,1.7-0.2,3.5-0.2,5.2c0,1.6,0.1,3.1,0.1,4.7c0,2.2-0.7,4.1-1.9,5.7c-0.5,0.6-0.8,1.4-1.2,2c-0.9,1.4-1.8,2.8-2.8,4.2
		c-0.8,1.2-1.5,2.3-2.2,3.5c-0.9,1.4-1.9,2.9-2.9,4.3c-1.7,2.3-3.4,4.6-5,6.9c-0.2,0.2-0.3,0.5-0.4,0.8c-0.4,0.9-0.9,1.7-1.6,2.2
		c-0.5,0.4-0.7,1-0.7,1.7c0.1,2.2,0,4.4,0.2,6.6c0.3,3.3,0.1,6.5-0.1,9.7c0,0.5-0.1,1.1,0,1.6c0.5,2.3,0.2,4.7,0.1,7
		c0,0.1,0,0.1,0,0.2c0.7,4.5-0.1,9.1,0.4,13.6c0.2,2.1,0.1,4.2,0.2,6.3c0,0.9,0.1,1.9,0.1,2.8c0.2,2.6,0.4,5.1,0.5,7.7
		c0.1,2.4,0,4.8,0,7.2c0,2.4,0.2,4.7,0.2,7.1c0,0.9-0.1,1.9-0.6,2.7c-1,1.6-2,3.2-3.1,4.7c-1.6,2.4-3.3,4.8-5,7.2
		c-0.2,0.3-0.4,0.7-0.6,0.8c-1,0.4-1.1,1.4-1,2.4c0.1,2.6,0.1,5.1,0,7.7c0,1.4-0.3,2.7-0.4,4.1c-0.1,1.7-0.1,3.4-0.2,5.2
		c0,0.7-0.2,1.3-0.2,2c-0.1,2.2,0,4.3-0.1,6.5c0,1.3-0.1,2.5-0.1,3.8c0,0.8,0,1.7,0.1,2.5c0,1.4,0,2.8,0,4.2c0,1.2,0.1,2.3,0,3.5
		c-0.1,2.7-0.2,5.3-0.2,8c0,2.9,0,5.8,0,8.6c0,3.5,0,7-0.1,10.5c0,0.5-0.2,1.1-0.5,1.5c-1.7,2.5-3.6,4.8-5.7,6.8
		c-0.6,0.6-0.7,1.3-0.7,2.1c-0.1,3.9,0.2,7.9-0.3,11.8c-0.1,0.5,0,0.9,0,1.4c0.1,1.5,0.2,3-0.1,4.5c-0.1,0.5-0.1,1-0.1,1.6
		c0,3.3,0,6.6,0,9.9c0,4.5,0,8.9,0,13.4c0,1.7,0.2,3.4,0.1,5c-0.2,2.6-0.1,5.3-1.4,7.5c-0.9,1.6-1,3.3-0.6,5.1
		c0.2,1.2,0.9,2,1.9,2.5c0.9,0.5,1.9,0.1,2.5-0.8c1.4-2.2,1.2-4.5,0.5-6.9c-0.2-0.5-0.5-1-0.7-1.5c-0.2-0.6-0.5-1.3-0.5-1.9
		c-0.1-4.8-0.2-9.5-0.3-14.3c0-0.3,0-0.5,0-0.8c-0.3-4.2,0.1-8.5,0-12.7c0-3.6,0-7.1,0-10.7c0-0.8,0.2-1.7,0.2-2.5
		c0.1-2.7,0.2-5.3,0.3-8c0-0.6,0.1-1.2,0.1-1.7c0-0.9,0.3-1.5,0.8-2.1c1.8-2.1,3.5-4.3,5.2-6.4c0.3-0.4,0.6-0.9,0.9-1.4
		c0.1-0.2,0.3-0.7,0.2-0.8c-0.6-1.3-0.3-2.7-0.3-4c0-1.9,0.1-3.8,0-5.7c-0.2-6-0.2-12,0-17.9c0.1-1.1,0.1-2.2,0.1-3.3
		c0-1.3-0.1-2.6-0.1-3.9c0-0.3,0-0.6,0-0.9c0.1-5.1,0.1-10.3,0.3-15.4c0.1-3.3,0.6-6.6,0.8-9.9c0.1-1.1,0-2.2,0-3.3
		c0-1.1-0.1-2.2,0.6-3.1c1.2-1.6,2.4-3.2,3.5-4.9c1.8-2.8,3.6-5.7,5.4-8.5c0.6-0.9,0.7-1.8,0.7-2.8c-0.1-4.4-0.1-8.7-0.3-13.1
		c-0.1-3.5-0.4-7-0.5-10.5c-0.1-3.8-0.2-7.7-0.3-11.5c0-2.3,0-4.5,0-6.8c0-0.1,0-0.2,0-0.3c-0.6-3.4,0-6.9-0.4-10.4
		c-0.1-1.4,0-3,0.2-4.4c0.3-2.5,0-5-0.2-7.5c-0.2-2,0-3.9,0.2-5.8c0-0.5,0.4-0.9,0.6-1.3c0.5-0.8,1.1-1.6,1.6-2.4
		c0.4-0.7,0.8-1.4,1.3-2c1.8-2.5,3.6-5,5.4-7.6c0.5-0.7,0.8-1.5,1.3-2.2c1.3-1.9,2.6-3.8,3.9-5.8c1.4-2.3,2.8-4.7,4.2-7.1
		c0.2-0.3,0.2-0.8,0.2-1.2c0-2.5,0-5-0.1-7.5c-0.1-3.4,0.2-6.9,0.3-10.4c0-0.8,0-1.7,0-2.5c0-0.7,0-1.4,0-2c0-1.8,0-3.6,0.1-5.3
		c0-3.9,0-7.8,0.1-11.6c0-0.6,0.1-1.2,0-1.7c-0.4-3.6,0.1-7.2,0.4-10.8c0.6-5.8,0.7-11.6,0.7-17.4c0-1.2-0.2-2.4-0.2-3.6
		c0-4.7,0.1-9.3,0.1-14c0-1.9-0.2-3.9,0-5.8c0.3-4,0.4-8.1,0.5-12.1c0.1-4.4,0.4-8.7,0.7-13c0.1-2.7,0.2-5.3,0.3-8
		c0.1-1.7,0.2-3.5,0.3-5.2c0-2.3,0-4.6,0-6.9c0.1-3.7,0.2-7.3,0.2-11c0-1.8,0.1-3.7,0-5.5c0-0.5,0.1-1.2-0.5-1.3
		c-0.7,0-0.6,0.7-0.7,1.3c-0.1,1-0.1,2.1-0.2,3.1C325,12.8,325,12.8,325.1,12.8z"/>
	<path class="st0" d="M285.3,280.7c0.2,1.4,0.4,2.4,0.4,3.4c0,3.6,0.2,7.3,0,10.9c-0.2,3.2-0.1,6.4-0.1,9.6c0,2.2,0.1,4.5,0.1,6.7
		c0,1.7-0.2,3.3-0.2,5c-0.1,2.4-0.1,4.7-0.2,7.1c0,0.3,0.1,0.6,0.1,0.9c0.1,1.2,0.1,2.4-0.2,3.6c-0.2,0.8-0.2,1.6-0.3,2.4
		c-0.1,1-0.2,2-0.8,2.7c-1.4,1.7-2.7,3.4-4.1,5.1c-0.9,1.2-1.9,2.4-2.8,3.6c-1.1,1.4-2.2,2.7-3.7,3.5c-1.9,1.1-3.2,2.8-3.5,5.5
		c-0.1,1.1-0.7,2.1-1,3.2c-0.9,2.5-1.1,5.1-0.8,7.7c0.2,1.4,0.7,2.7,1.2,4c0.2,0.5,0.7,0.9,1.2,1.1c2.5,1,4.7-0.1,5.6-3
		c1-3.2,1.4-6.3,0.3-9.5c-0.6-1.8-1.5-3.4-2.2-5.1c-0.1-0.2-0.2-0.4-0.4-0.8c0.5-0.6,0.9-1.2,1.4-1.7c3.2-3.4,6-7.3,8.9-11.1
		c0.4-0.5,0.8-1.2,1.3-1.6c0.8-0.6,0.9-1.5,0.9-2.5c0-0.7,0-1.4,0.2-2c0.7-2.5,0.2-5,0.4-7.5c0.1-1.5-0.1-2.9,0-4.4
		c0.4-5.7,0.1-11.3,0.1-17c0-2,0.1-4.1,0.1-6.1c0-3.4,0-6.7,0.1-10.1c0.1-1.8,0.2-3.5,1-5.3c1.5-3.5,3.5-6.5,5.5-9.6
		c1.1-1.8,2.3-3.6,3.4-5.5c0.3-0.4,0.4-1.1,0.4-1.6c0.1-3.1,0-6.3-0.4-9.4c-0.2-1.7,0-3.5,0.1-5.2c0.3-5.2,0-10.4,0-15.6
		c0-2.6-0.1-5.2-0.2-7.9c0-0.8-0.1-1.6-0.1-2.4c-0.4-4.9-0.5-9.7-0.3-14.6c0-0.5,0-1,0-1.6c0-1.2,0.1-2.4,0.1-3.6
		c0-0.2,0.1-0.4,0.1-0.6c0.1-2.9,0.2-5.9,0.2-8.8c0-1.4,0.4-2.5,1.2-3.6c0.8-1,1.5-2.2,2.2-3.3c1.6-2.6,3.1-5.4,4.9-7.8
		c1.3-1.7,2.2-3.8,3.6-5.4c1.9-2.2,3.5-4.7,5.2-7.1c1-1.4,1.9-2.9,2.8-4.4c0.4-0.6,0.6-1,0.1-1.6c-0.1-0.2-0.2-0.5-0.2-0.7
		c-0.1-1.7-0.1-3.4-0.1-5.2c-0.1-1.9-0.2-3.9-0.3-5.8c0-1.6,0-3.2,0-4.9c0-2.9,0-5.9,0-8.8c0.1-4,0.2-8.1,0.4-12.1
		c0.2-3,0.6-5.9,0.8-8.9c0.2-2.4,0.2-4.8,0.3-7.2c0.1-1.6,0.1-3.2,0.2-4.9c0.3-3.9,0.3-7.7-0.1-11.6c-0.1-1.4-0.1-2.8,0-4.2
		c0.1-2.5,0.2-5,0.3-7.5c0.1-1.9,0.3-3.8,0.4-5.6c0.2-3.3,0.2-6.6,0.5-9.9c0.3-2.8,0.2-5.5,0.5-8.3c0-0.3,0-0.5,0-0.8
		c0-3.4-0.1-6.7,0-10.1c0-2.7,0.1-5.3,0.2-8c0-0.9,0.3-1.8,0.3-2.6c0.2-2.7,0.3-5.3,0.4-8c0.1-2.6,0.3-5.1,0.4-7.7
		c0.1-2.3,0-4.6,0-6.9c0-0.6-0.1-1.1-0.7-1c-0.6,0.1-0.6,0.6-0.6,1.2c0,2.8-0.1,5.5,0,8.3c0.1,2.7-0.3,5.4-0.5,8.1
		c-0.1,1.8-0.1,3.7-0.2,5.5c-0.2,2.4-0.4,4.9-0.6,7.3c-0.1,2.3-0.1,4.6-0.1,6.9c0,3.9,0,7.7,0,11.6c0,0.6-0.2,1.2-0.2,1.9
		c-0.2,3.3-0.4,6.7-0.6,10c-0.1,1.9-0.3,3.9-0.4,5.8c-0.2,4.3-0.3,8.6-0.4,12.9c0,1.7,0.2,3.4,0.2,5.2c0,3.6-0.1,7.2-0.4,10.8
		c-0.2,1.7,0,3.5-0.1,5.2c-0.1,1.7-0.2,3.5-0.3,5.2c-0.2,2.3-0.5,4.7-0.7,7c-0.2,3-0.2,6.1-0.3,9.1c-0.1,1.9-0.2,3.8-0.3,5.6
		c0,0.2,0,0.4,0,0.6c0.1,2.2,0.2,4.5,0.2,6.7c0,0.8,0,1.6,0,2.4c0,1.5,0,3,0.1,4.5c0.3,3.2,0.2,6.5,0.2,9.7c0,0.3-0.1,0.7-0.3,1
		c-0.6,1-1.2,2.1-1.8,3.1c-0.7,1.1-1.5,2.2-2.3,3.2c-1.3,1.7-2.7,3.4-4.1,5.2c-0.1,0.1-0.2,0.2-0.2,0.4c-1.6,2.6-3.1,5.2-4.7,7.7
		c-1.8,2.9-3.7,5.7-5.6,8.6c-0.5,0.8-0.8,1.6-0.7,2.6c0.3,1.8,0.1,3.5,0,5.3c0,1,0.1,2.1,0.1,3.1c0,0.6-0.1,1.2-0.1,1.9
		c-0.1,0.6-0.3,1.2-0.2,1.7c0.5,2.3,0,4.5,0,6.7c0.1,3.4,0.1,6.7,0.2,10.1c0.2,4.9,0.6,9.7,0.4,14.6c-0.1,2.1,0.2,4.3,0.2,6.4
		c0,2.4-0.2,4.7-0.3,7.1c0,1.9,0.1,3.9,0.1,5.8c0,2.4,0.1,4.8,0.1,7.2c0,0.6-0.3,1.2-0.6,1.7c-1.4,2.3-3,4.6-4.3,7
		c-1.7,3-3.4,6.1-5.1,9.2C285.5,280.3,285.3,280.6,285.3,280.7z"/>
	<path class="st0" d="M288.7,207c0.4-5.3,0-10.6,1-15.8c0-0.1,0-0.1,0-0.2c-0.3-3.2,1.5-5.3,2.9-7.6c1.9-3.1,3.9-6.1,5.9-9.1
		c0.8-1.2,1.9-2.2,2.7-3.5c1.4-2.1,2.8-4.3,4.2-6.5c1.1-1.7,2.2-3.5,3.4-5.2c0.4-0.5,0.5-1,0.5-1.7c0-4.1,0-8.3,0.3-12.4
		c0.2-2.9,0.2-5.9,0.2-8.8c0.1-4.9,0.1-9.8,0.2-14.6c0.1-4.2,0.5-8.4,0.5-12.6c0-1.9,0.2-3.6,0.4-5.5c0.4-5,0.6-10,0.8-15.1
		c0-0.7,0.2-1.4,0.2-2.2c0.1-0.6,0.2-1.2,0.2-1.9c0-3.8-0.1-7.7,0.2-11.5c0.2-2.5,0-5-0.1-7.5c-0.1-2.9,0.3-5.7,0.6-8.6
		c0.2-2.7,0.3-5.3,0.4-8c0-0.4,0-0.8,0-1.3c0.2-4.5,0.4-9,0.7-13.5c0.1-1.3,0.3-2.6,0.4-3.9c0.1-2.8,0.2-5.5,0.3-8.3
		c0-0.7,0.1-1.5,0.2-2.2c0.5-3.6-0.1-7.1,0-10.7c0-0.2,0-0.5-0.1-0.6c-0.1-0.2-0.3-0.5-0.5-0.5c-0.2,0-0.4,0.2-0.5,0.4
		c-0.1,0.2-0.2,0.5-0.2,0.7c0,2.2,0.1,4.5,0.1,6.7c0,1.1,0,2.2-0.1,3.3c-0.1,1.9-0.3,3.9-0.4,5.8c-0.2,3.2-0.4,6.4-0.5,9.6
		c-0.2,4.7-0.5,9.4-0.7,14.1c-0.1,2.6-0.2,5.1-0.3,7.7c-0.1,2-0.4,3.9-0.5,5.9c-0.1,1.7-0.1,3.5-0.1,5.2c0,1.7,0.1,3.4,0.1,5
		c0,0.7-0.1,1.5-0.2,2.2c-0.1,0.8-0.2,1.6-0.1,2.3c0.4,3.9-0.1,7.8-0.3,11.7c-0.1,1.4,0,2.8,0,4.2c0,0.5-0.1,0.9-0.1,1.4
		c-0.2,2.7-0.4,5.3-0.6,8c-0.1,1.1-0.4,2.3-0.4,3.4c-0.1,1.6,0,3.3-0.1,4.9c-0.2,3.4-0.1,6.9-0.4,10.4c-0.2,2.6-0.5,5.2-0.1,7.8
		c0.2,1.5,0,3-0.1,4.6c-0.1,3.3-0.1,6.6-0.2,9.9c-0.1,2.7-0.3,5.4-0.4,8.2c-0.1,1.5-0.1,3-0.1,4.6c0,1-0.3,1.9-0.8,2.6
		c-1.3,2.1-2.6,4.1-3.9,6.1c-1.5,2.3-3.1,4.6-4.7,6.8c-2,2.8-4,5.6-5.9,8.5c-1.1,1.6-2,3.5-3,5.2c-0.5,0.8-1.3,1.5-1.6,2.5
		c-0.2,0.9,0.2,1.9,0.1,2.9c-0.1,1.6-0.3,3.2-0.5,4.9c-0.1,1.8-0.2,3.5-0.2,5.3c-0.1,3-0.2,6.1-0.3,9.1c0,0.6,0.1,1.3,0.1,1.9
		c0,1.1,0,2.2,0,3.3c0,0.4-0.1,0.8,0,1.1c0.4,1.1,0.2,2.1,0.1,3.2c-0.1,0.8,0,1.7,0,2.5c0.1,3.9,0.1,7.8,0.2,11.6
		c0.1,2.1,0.2,4.3,0.3,6.4c0.1,1.5,0.1,2.9,0.2,4.4c0.2,2.8,0.5,5.5,0.7,8.3c0.1,2,0.1,4.1,0.1,6.1c0,1-0.3,1.8-0.9,2.5
		c-0.9,1.1-1.7,2.3-2.5,3.5c-2,3.2-4,6.4-6.1,9.5c-0.8,1.3-1.7,2.5-2.5,3.8c-0.2,0.4-0.5,1-0.4,1.4c0.4,1.9,0.1,3.8-0.1,5.6
		c-0.1,1.6-0.4,3.1-0.5,4.7c-0.2,2.9-0.5,5.8-0.6,8.8c-0.1,4,0,8,0,12c0,1,0.1,2,0,3c-0.1,1.2-0.4,2.3-0.6,3.5
		c-0.2,1-0.4,1.9-0.7,2.9c-0.2,0.7-0.5,1.3-0.7,2c-1,2.4-1.5,4.8-0.4,7.4c0.5,1.2,1.2,1.7,2.3,1.6c2.8-0.3,3.6-1.7,3.9-5.2
		c0.2-2.8-0.7-5.2-1.4-7.8c-0.6-2.2-1.2-4.3-1.2-6.7c0-3.5-0.1-6.9-0.1-10.4c0.1-2.6,0.3-5.2,0.5-7.8c0-0.2,0-0.3,0.1-0.5
		c0.3-3.2,0.6-6.5,0.9-9.7c0-0.3,0.1-0.6,0.1-0.9c-0.3-1.8,0.3-3.1,1.2-4.5c1.4-2,2.6-4.2,4-6.3c1.4-2.2,2.8-4.4,4.3-6.6
		c0.4-0.6,0.8-1.3,1.4-1.7c1.2-0.8,1.3-2.1,1.4-3.5c0-1.4,0-2.7-0.1-4.1c-0.3-3.6-0.6-7.2-0.9-10.8c-0.2-2.2-0.3-4.4-0.3-6.6
		c-0.2-5.7-0.3-11.4-0.4-17.1c0-2.2,0.1-4.4,0.1-6.6c0-0.2,0-0.3,0-0.5C288.9,211.5,288.8,209.2,288.7,207z"/>
	<path class="st0" d="M322.3,8.8c0.4,0.5,0.6,0.8,0.9,1.2C323.5,8.7,323.5,8.7,322.3,8.8z"/>
</g>
</svg>
