<?xml version="1.0" encoding="utf-8"?>
<!-- Generator: Adobe Illustrator 19.1.0, SVG Export Plug-In . SVG Version: 6.00 Build 0)  -->
<svg version="1.1" id="Layer_1" xmlns="http://www.w3.org/2000/svg" xmlns:xlink="http://www.w3.org/1999/xlink" x="0px" y="0px"
	 viewBox="0 0 192.8 68.1" style="enable-background:new 0 0 192.8 68.1;" xml:space="preserve">
<style type="text/css">
	.st0{fill-rule:evenodd;clip-rule:evenodd;}
</style>
<g>
	<path class="st0" d="M15.4,33c0.3,3.3,0.6,6.4,1,9.6c0.1,1.2,0.4,2.4,0.8,3.6c0.8,2.3,2.3,3.9,4.5,4.9c0.8,0.4,1.6,0.8,2.4,1.2
		c0.8,0.4,1.6,0.7,2.4,0.6c1.3-0.2,2.5-0.3,3.7-0.6c1.7-0.6,2.7-2,3.2-3.6c1.2-3.4,2.1-6.8,1.7-10.5c-0.1-0.7-0.1-1.5,0-2.3
		c0.1-1.3,0.1-2.6-0.1-3.9c-0.2-1.4,0.1-1.6,1.5-1.6c1.4,0,2.7,0,4.1,0c0.8,0,1.2,0.2,1.4,1.1c0.8,3.1,1,6.2,0.8,9.4
		c-0.1,1.3,0,2.5-0.2,3.8c-0.1,1.2-0.4,2.3-0.8,3.4c-0.6,1.8-1.2,3.7-2.2,5.3c-0.9,1.6-1.8,3.3-3.5,4.3c-0.7,0.4-1.4,1-2.1,1.4
		c-1.6,1.1-3.5,1-5.3,1.2c-0.8,0.1-1.6,0.2-2.4,0.2c-0.3,0-0.6,0.1-0.8,0.1c-1.5-0.4-3-0.4-4.5-1c-1.1-0.5-2.3-0.7-3.4-1.2
		c-3.2-1.6-5.1-4.2-6.2-7.6c-1-3.3-1.2-6.8-2-10.2c-0.4-1.5-0.6-3.1-0.8-4.7c-0.1-0.8-0.2-1.7-0.2-2.5c0-0.3,0.4-0.7,0.7-0.7
		C11.2,32.6,13.3,32.2,15.4,33z"/>
	<path class="st0" d="M53.8,47.2c-0.2-3.1-0.3-6.2-0.5-9.3c-0.1-1.7-0.2-3.3-0.4-5c-0.1-1.2,0.1-1.4,1.2-1.5
		c1.2-0.1,2.4-0.2,3.6-0.2c0.9,0,1.2,0.4,1.1,1.2c-0.4,2.5,0.1,5,0.3,7.5c0.3,3.5,0.6,7,0.6,10.4c0,3-0.3,2.5,2.4,3
		c4.3,0.8,8.1-0.2,11.3-3.4c0.7-0.7,0.9-1.6,1-2.5c0.2-2.7,0.4-5.4,0.6-8c0.1-1.9-0.4-3.7-1.2-5.4c-0.3-0.6-0.2-1,0.2-1.4
		c0.4-0.3,0.9-0.7,1.4-0.7c1.4-0.1,2.8-0.1,4.2-0.2c0.8,0,1.2,0.4,1.4,1.1c0.2,0.9,0.4,1.8,0.3,2.9c-0.2,1.4-0.1,2.9-0.1,4.4
		c0,1.8-0.1,3.5-0.5,5.3c-0.3,1.2-0.3,2.4-0.4,3.6c-0.2,2-1.3,3.5-2.2,5.2c-0.9,1.8-2.4,3-4.3,3.7c-1.5,0.5-3,1.1-4.5,1.6
		c-1.6,0.5-3.3,0.3-5,0.2c-1.1-0.1-2.3-0.1-3.4-0.2c-1.4-0.2-2.9-0.3-4.3-0.7c-1.3-0.3-2.1-1.2-2.4-2.6c-0.2-1.5-0.4-3.1-0.5-4.6
		C53.8,50.1,53.9,48.6,53.8,47.2C53.9,47.2,53.8,47.2,53.8,47.2z"/>
	<path class="st0" d="M96.2,32.4c0.4,0.2,0.8,0.7,0.5,1.5c-0.1,0.3-0.1,0.8,0,1.2c0.2,2,0.4,4,0.5,5.9c0.1,2.1-0.1,4.1-0.2,6.2
		c-0.1,1.3-0.2,2.6-0.2,4c0,0.6,0,1.3,0,2c1.1,0.6,2.3,0.3,3.5,0.3c2.2-0.1,4.5-0.4,6.7-0.5c1.3-0.1,2.6,0.1,3.9,0
		c2.7-0.1,5.4-0.2,8.1-0.4c1.7-0.1,2.2,0.2,2.1,1.7c-0.1,0.9,0,1.7,0,2.6c0,0.5,0,1,0,1.6c-0.1,0.6-0.7,1-1.2,0.6
		c-0.9-0.6-1.6-0.4-2.5-0.2c-1,0.2-2,0-3.1,0.1c-2.7,0.2-5.3-0.1-8,0.5c-0.7,0.2-1.5,0.1-2.2,0.1c-4.1,0.1-8.2,0.2-12.2,0.3
		c-0.8,0-1.4-0.5-1.4-1.4c0-0.9,0.1-1.7,0.1-2.6c0.1-3.3,0.3-6.6,0.4-9.9c0-1.2-0.2-2.3-0.1-3.5c0-2,0.2-4,0.2-5.9
		c0-0.9-0.1-1.9-0.2-2.8c-0.1-0.7,0.3-0.9,1-1c0.3,0,0.7,0,1,0C93.8,32.6,94.9,32.5,96.2,32.4z"/>
	<path class="st0" d="M135.4,31.2c0.5,1.3,0.4,2.5,0.3,3.7c-0.1,2.3-0.5,4.6-0.5,6.9c0,2.2-0.4,4.4,0.1,6.6c0.2,0.9,0.1,1.8,0.2,2.7
		c0.1,0.7,0.1,1.3,0.2,2.1c0.6,0.1,1.2,0.2,1.7,0.2c2.3,0.1,4.5,0.1,6.8,0.1c1,0,2-0.2,3.1-0.3c0.3,0,0.7-0.1,1-0.1
		c1.8,0,3.6,0,5.3,0c0.2,0,0.5,0.1,0.8,0.1c0.5,1.8,1,3.5,0.8,5.4c-1.1,0.4-2.3,0.4-3.5,0.3c-1.9-0.2-3.7,0-5.6,0.2
		c-1.8,0.2-3.6,0.3-5.5,0.3c-2.2,0.1-4.3,0.2-6.5,0.2c-1.4,0-2.8-0.2-4.2-0.4c-0.8-0.1-1.4-0.8-1.5-1.8c-0.1-1.5-0.1-3.1-0.1-4.6
		c0-1.9,0.1-3.8,0.1-5.6c0-2,0.1-4.1,0.1-6.1c0-0.4-0.1-0.9-0.1-1.3c0-1.7,0-3.3,0-5c0-0.8,0.1-1.7,0.1-2.5c0-0.8,0.2-0.9,1.1-1
		c1.2,0,2.4-0.1,3.7-0.2C134.2,31.2,134.8,31.2,135.4,31.2z"/>
	<path class="st0" d="M171.2,18.4c0,0.5,0,1,0,1.5c0,1.2,0,2.3,0.1,3.5c0,0.5,0.1,1,0.3,1.5c0.2,0.6,0.3,1.2-0.1,1.8
		c-2,0-4.1,0.2-6.2-0.1c-0.6-0.1-0.9-0.4-1-0.9c-0.1-0.7-0.1-1.4-0.2-2c-0.1-1.7-0.2-3.4-0.3-5c0-0.2-0.1-0.3-0.1-0.5
		c-0.3,0-0.6-0.1-1-0.1c-1.6-0.1-3.3-0.2-4.9-0.2c-1.1,0-2.2,0.2-3.4,0.2c-1.1,0-2.2-0.1-3.3-0.1c-0.4-0.5-0.6-1-0.5-1.6
		c0.2-0.8,0-1.7,0.1-2.5c0-0.9,0.3-1.1,1.3-1c1.7,0.1,3.4,0,5.2-0.3c1.3-0.2,2.6-0.2,3.9-0.2c3,0.1,6,0,9-0.1c4-0.1,8-0.1,11.9-0.1
		c1,0,1.5,0.2,1.7,1.1c0.2,1,0.2,2.1,0.2,3.1c0,0.7-0.7,0.8-1.4,0.9C178.9,17.7,175.1,17.7,171.2,18.4z"/>
	<path class="st0" d="M53,12.9c1.1-0.1,2.2-0.1,3.3-0.2c0.7,0,1.4,0.1,2-0.1c1.6-0.3,3.1-0.4,4.7-0.2c1.1,0.2,2.3-0.1,3.4-0.1
		c2.8,0,5.6,0.6,7.8,2.5c1.4,1.2,2.8,2.5,4.1,3.9c0.6,0.6,1,1.5,1.2,2.4c0.5,1.7,0.8,3.5,0.8,5.3c0,0.7-0.3,0.9-1,0.9
		c-1.1,0-2.2-0.1-3.3,0c-0.9,0-1,0-1.1-0.9c0-0.3-0.1-0.7-0.1-1c0.2-1.2-0.1-2.3-0.8-3.3c-0.4-0.5-0.7-1.1-1-1.7
		c-0.7-1.5-1.9-2.3-3.4-2.6c-1.7-0.3-3.3-0.6-5.1-0.5c-1.2,0.1-2.5,0.2-3.7,0.4c-0.2,0-0.4,0.1-0.6,0.2c0,1-0.1,2-0.1,3
		c0,1.2-0.1,2.4-0.1,3.6c0,0.6-0.1,1.2,0.3,1.7c0.3,0.4,0,0.8-0.3,0.9c-0.7,0.3-1.5,0.6-2.2,0.6c-0.9,0-1.9-0.1-2.8-0.3
		c-0.8-0.1-1.1-0.5-1.1-1.3c0.1-3.3,0-6.6-0.4-9.9c-0.1-0.9-0.4-1.7-0.5-2.6C52.9,13.3,53,13.1,53,12.9z"/>
	<path class="st0" d="M97.7,18.1c-0.1,0.5-0.2,0.9-0.1,1.3c0.4,1.5,0,2.9-0.1,4.3c-0.1,0.8,0,1.6,0,2.4c0,0.5-0.2,1-0.7,0.9
		c-1.6,0-3.1,0.4-4.7-0.1c-0.7-0.3-0.9-0.6-0.9-1.3c0-1.4-0.1-2.8-0.1-4.2c0-0.6,0-1.1,0-1.7c0-1.9,0.1-3.9,0.1-5.8
		c0-1.4,0.4-1.7,1.9-1.7c1.4,0.1,2.7,0,4.1,0c2.9-0.1,5.7-0.1,8.6-0.2c2.4-0.1,4.9-0.1,7.3,0.1c1.1,0.1,2.2-0.2,3.3-0.2
		c1.4-0.1,2.7-0.1,4.1-0.2c0.5,0,0.8,0.3,0.8,0.7c0.1,0.9,0.1,1.8,0.1,2.6c0,1-0.1,1.9-0.2,2.9c-0.1,0.9-0.5,1.2-1.4,0.8
		c-1.1-0.6-2.3-0.7-3.5-0.7c-1.3,0-2.5,0-3.8-0.2c-1.7-0.2-3.3,0.1-4.9,0.3c-2.4,0.3-4.9,0.3-7.3,0.1C99.4,18.2,98.6,18.1,97.7,18.1
		z"/>
	<path class="st0" d="M172.2,60.2c-0.3,0.2-0.3,0.3-0.4,0.3c-1.6-0.1-3.1-0.1-4.7-0.2c-0.6,0-1-0.5-1.2-1c-0.3-1.4-0.6-2.8-0.7-4.3
		c-0.1-1.4,0.1-2.9,0.1-4.3c0-1-0.2-2-0.4-3c-0.1-0.6-0.3-1.1-0.3-1.7c0.2-3.4,0.2-6.8,0.1-10.1c0-1.3,0.1-2.5,0.2-3.8
		c0-0.6,0.3-1,1.1-0.9c0.9,0.1,1.8,0.1,2.7,0.2c0.7,0,1.5,0,2.3,0c0.8,0,1.2,0.4,1.1,1.1c-0.4,1.8-0.3,3.6-0.2,5.5
		c0,1.9-0.2,3.8-0.3,5.6c0,1.4,0,2.9,0,4.3c0,1.5,0,3,0,4.5c0,0.7,0.1,1.5,0.1,2.2C171.9,56.4,172.1,58.3,172.2,60.2z"/>
	<path class="st0" d="M7.6,20.4c0-1.8,0.1-3.5,0-5.3c-0.1-2.2,0.7-3.1,2.8-2.6c1.3,0.3,2.6,0.6,4,0.5c0.7,0,1,0.3,0.9,1.1
		c0,0.4-0.1,0.8-0.2,1.2c-0.5,2.1-0.7,4.3-0.6,6.4c0.1,1.2,0.3,2.5,0.5,3.7c0.2,1.4,0.1,1.3-1.1,1.9c-1.6,0.8-3.2,0.5-4.8,0.5
		c-1.2,0-1.4-0.3-1.4-1.6c0-2,0-3.9,0-5.9C7.7,20.4,7.7,20.4,7.6,20.4z"/>
	<path class="st0" d="M128.6,19.6c0.1-2,0.2-4,0.3-5.9c0-0.8,0.5-1.5,1.3-1.5c1.5,0,3.1,0,4.6,0.1c1.1,0.1,1.1,0.3,1,1.4
		c-0.3,2.3-0.7,4.5-0.9,6.8c-0.1,1.6,0,3.2,0.6,4.8c0.4,1.1,0.2,1.4-1,1.4c-1.3,0-2.6-0.1-3.9,0.3c-0.7,0.2-1.4-0.5-1.5-1.4
		c-0.3-2-0.4-3.9-0.7-5.9C128.4,19.6,128.5,19.6,128.6,19.6z"/>
	<path class="st0" d="M41.5,25.8c-1.5,0.3-2.9,0.7-4.4,0.9c-1.2,0.2-2.1-0.7-2.1-2c-0.1-3.1-0.3-6.3-0.8-9.4
		C34,14.6,34,13.8,33.9,13c0.1-0.1,0.3-0.3,0.5-0.4c1.8-0.3,3.6-0.8,5.5-0.7c0.8,0,1.1,0.4,1.2,1.3c0.1,2.4,0.3,4.7,0.2,7.1
		c-0.1,1.5,0.1,3,0.2,4.5C41.5,25,41.5,25.4,41.5,25.8z"/>
</g>
</svg>
